<?xml version="1.0" encoding="UTF-8"?>
<svg width="14px" height="14px" viewBox="0 0 14 14" version="1.1" xmlns="http://www.w3.org/2000/svg" xmlns:xlink="http://www.w3.org/1999/xlink">
    <title>形状结合</title>
    <g id="智能车管" stroke="none" stroke-width="1" fill="none" fill-rule="evenodd">
        <g id="画板" transform="translate(-16.000000, -269.000000)" fill="#B0B1B4" fill-rule="nonzero">
            <g id="编组-29" transform="translate(0.000000, 256.000000)">
                <path d="M25.011975,25.8669839 C25.3194977,25.8669839 25.5687932,26.1206177 25.5687932,26.433492 C25.5687932,26.7463663 25.3194977,27 25.011975,27 L25.011975,27 L20.988025,27 C20.6805023,27 20.4312068,26.7463663 20.4312068,26.433492 C20.4312068,26.1206177 20.6805023,25.8669839 20.988025,25.8669839 L20.988025,25.8669839 Z M27.7349273,13 C28.9858909,13 30,14.0316597 30,15.3042957 L30,15.3042957 L30,22.3804182 C30,23.6530381 28.9858909,24.684714 27.7349273,24.684714 L27.7349273,24.684714 L18.2650727,24.684714 C17.0141091,24.684714 16,23.6530381 16,22.3804182 L16,22.3804182 L16,15.3042957 C16,14.0316597 17.0141091,13 18.2650727,13 L18.2650727,13 Z M27.7349273,14.165388 L18.2650727,14.165388 C17.6477205,14.165388 17.1454545,14.6762973 17.1454545,15.3042957 L17.1454545,15.3042957 L17.1454545,22.3804344 C17.1454545,23.0084329 17.6477045,23.5193422 18.2650727,23.5193422 L18.2650727,23.5193422 L27.7349273,23.5193422 C28.3522795,23.5193422 28.8545455,23.0084167 28.8545455,22.3642323 L28.8545455,22.3642323 L28.8545455,15.2881098 C28.8545455,14.6762973 28.3522795,14.165388 27.7349273,14.165388 L27.7349273,14.165388 Z M26.1301614,17.0880677 C26.3477023,16.8544236 26.7102227,16.8444854 26.9398386,17.0657959 C27.1694705,17.2871225 27.1792705,17.6559354 26.9617295,17.8895471 L26.9617295,17.8895471 L24.3831364,20.6587841 C24.2749684,20.7749327 24.1246203,20.8407247 23.9673523,20.8407303 L23.9673523,20.8407303 C23.8076328,20.8402219 23.6569388,20.7734089 23.5490705,20.6560811 L23.5490705,20.6560811 L21.8808591,18.8415234 L19.8590205,20.8985465 C19.7471955,21.0123175 19.6006091,21.0692111 19.4540386,21.0692111 C19.3074682,21.0692111 19.1608818,21.0123175 19.0490568,20.8985465 C18.8253909,20.6710045 18.8253909,20.3020459 19.0490568,20.0744877 L19.0490568,20.0744877 L21.4896386,17.5914506 C21.5993905,17.4797902 21.7489867,17.418231 21.9041767,17.4208673 C22.0593667,17.4235035 22.2068596,17.4901094 22.3128864,17.6054352 L22.3128864,17.6054352 L23.970025,19.4079343 Z" id="形状结合"></path>
            </g>
        </g>
    </g>
</svg>