<?xml version="1.0" encoding="UTF-8"?>
<svg width="13px" height="14px" viewBox="0 0 13 14" version="1.1" xmlns="http://www.w3.org/2000/svg" xmlns:xlink="http://www.w3.org/1999/xlink">
    <title>形状</title>
    <g id="智能车管" stroke="none" stroke-width="1" fill="none" fill-rule="evenodd">
        <g id="画板" transform="translate(-17.000000, -219.000000)" fill="#B0B1B4" fill-rule="nonzero">
            <g id="编组-27" transform="translate(0.000000, 208.000000)">
                <path d="M26.6074977,17.4615385 C27.2851368,17.4615385 27.9023669,17.8596497 28.1937517,18.4846154 L29.7951163,21.92 C30.1062472,22.5873173 30.0606775,23.370998 29.6744007,23.9959971 C29.2881239,24.6209961 28.6151014,25 27.8915412,25 L19.1084588,25 C18.3848986,25 17.7118761,24.6209961 17.3255993,23.9959971 C16.9393225,23.370998 16.8937528,22.5873173 17.2048837,21.92 L18.8062483,18.4846154 C19.0976331,17.8596497 19.7148632,17.4615385 20.3925023,17.4615385 L26.6074977,17.4615385 Z M25.3765167,18.5384615 L20.3925023,18.5384615 C20.1420298,18.5383534 19.9104296,18.6744252 19.7845671,18.895641 L19.7578601,18.9476923 L18.1564956,22.3830769 C18.0056331,22.70659 18.0221785,23.0855674 18.2006339,23.3940772 C18.3790893,23.7025871 18.6960755,23.9002119 19.0462597,23.921282 L19.1084588,23.9230769 L20.5130352,23.9230769 C20.5130356,22.1575298 21.9004751,20.7189537 23.6286152,20.6926667 L25.3765167,18.5384615 Z M26.7361129,18.5506667 L24.8209413,20.9109231 C26.0054517,21.3814195 26.7994321,22.5302448 26.8369668,23.8279487 L26.8383725,23.923077 L27.8915412,23.923077 C28.2419265,23.9231621 28.5694568,23.745408 28.7655194,23.4487598 C28.9615819,23.1521116 29.0005527,22.7753393 28.8695086,22.4433846 L28.8435044,22.3830769 L27.2421399,18.9476923 C27.1453795,18.7402536 26.9572655,18.5926605 26.7361129,18.5506667 L26.7361129,18.5506667 Z M23.6757038,21.76923 C22.5419775,21.7691883 21.6111784,22.6849839 21.5686637,23.8423077 L21.567258,23.9230769 L25.7841496,23.9230769 C25.7840725,22.8967752 25.0753587,22.0129859 24.0903648,21.8108718 L24.0815796,21.822359 L24.0619008,21.8051282 C23.9345121,21.7811371 23.8052393,21.769121 23.6757038,21.76923 Z M23.5,11 C25.2466937,11 26.6626687,12.4464647 26.6626687,14.2307692 C26.6626687,16.0150738 25.2466937,17.4615385 23.5,17.4615385 C21.7533063,17.4615385 20.3373314,16.0150738 20.3373314,14.2307692 C20.3373314,12.4464647 21.7533063,11 23.5,11 Z M23.5,12.0769231 C22.3355376,12.0769231 21.3915542,13.0412328 21.3915542,14.2307692 C21.3915542,15.4203056 22.3355376,16.3846154 23.5,16.3846154 C24.6644624,16.3846154 25.6084458,15.4203056 25.6084458,14.2307692 C25.6084458,13.0412328 24.6644624,12.0769231 23.5,12.0769231 Z" id="形状"></path>
            </g>
        </g>
    </g>
</svg>