<?xml version="1.0" encoding="UTF-8"?>
<svg width="14px" height="14px" viewBox="0 0 14 14" version="1.1" xmlns="http://www.w3.org/2000/svg" xmlns:xlink="http://www.w3.org/1999/xlink">
    <title>形状</title>
    <g id="智能车管" stroke="none" stroke-width="1" fill="none" fill-rule="evenodd">
        <g id="画板" transform="translate(-16.000000, -77.000000)" fill="#FFFFFF" fill-rule="nonzero">
            <g id="编组-28" transform="translate(0.000000, 64.000000)">
                <path d="M27.3448262,26.0326738 C27.3448262,26.0344788 18.6545176,26.0344788 18.6545176,26.0344788 C18.6545996,26.0344788 18.6551738,21.8103477 18.6551738,21.8103477 L18.6551738,19.9461055 C18.6551738,19.6725996 18.4281797,19.4537129 18.1548516,19.463666 C18.1406328,19.4641855 18.126373,19.4644453 18.1120586,19.4644453 C17.4788457,19.4644453 16.9655215,18.9511074 16.9655215,18.3178945 C16.9655215,18.2693594 16.968502,18.2213437 16.9744082,18.173957 L16.9888594,18.0842695 C16.9977734,18.0392344 17.0142891,17.9798848 17.0354531,17.9222852 C17.0435944,17.9001416 17.0501014,17.877431 17.0549219,17.8543359 L17.8646797,13.9736836 L17.3920977,13.875082 L17.8572422,14.0042812 C17.8594707,13.9962832 17.8999395,13.9655215 17.9088262,13.9655215 L28.0911738,13.9655215 C28.0990352,13.9655215 28.1408027,13.9972812 28.1427578,14.0042812 L28.6079023,13.875082 L28.1353203,13.9736836 L28.9450781,17.8543359 C28.9498986,17.877431 28.9564056,17.9001416 28.9645469,17.9222852 C28.9857805,17.9800528 29.0022776,18.0394526 29.013875,18.0998965 L29.0228301,18.138082 L29.0520879,18.2434512 L29.5172461,18.1142383 L29.0354766,18.0832852 C29.0319219,18.1386562 29.0319219,18.177293 29.0336309,18.2593789 C29.0342734,18.2900039 29.0344785,18.3031973 29.0344785,18.3178945 C29.0344785,18.9511211 28.5211543,19.464459 27.8879277,19.464459 C27.873627,19.464459 27.8593672,19.4641855 27.8451484,19.4636797 C27.5718203,19.4537266 27.3448262,19.6726133 27.3448262,19.9461191 L27.3448262,26.0326875 L27.3448262,26.0326738 Z M28.310334,19.9460918 L27.8275801,19.9460918 L27.8100254,20.4285449 C27.8359821,20.4294868 27.8619539,20.4299563 27.8879277,20.4299531 C29.0543984,20.4299531 30,19.4843516 30,18.3178945 C30,18.2942422 29.9997266,18.2764687 29.9989473,18.2391582 C29.9977988,18.1846758 29.9977988,18.1639355 29.999002,18.1451641 C30.0024692,18.0912265 29.996854,18.0370895 29.9823906,17.9850117 L29.9531328,17.8796563 L29.4879746,18.0088555 L29.9620742,17.9178418 C29.9406012,17.8059802 29.9100623,17.6960511 29.8707598,17.5891426 L29.4176602,17.755707 L29.8902285,17.6571055 L29.0804844,13.7764805 C28.9550449,13.3210566 28.5328574,13 28.0911738,13 L17.9088262,13 C17.4662266,13 17.0452559,13.3199766 16.9269531,13.7458691 L16.1097715,17.6571055 L16.5823398,17.755707 L16.1292402,17.5891426 C16.0899377,17.6960511 16.0593988,17.8059802 16.0379258,17.9178418 L16.0185254,18.0388242 C16.0054687,18.1414863 16,18.2294102 16,18.3178945 C16,19.4843516 16.9456016,20.4299531 18.1120723,20.4299531 C18.1380461,20.4299563 18.1640179,20.4294868 18.1899746,20.4285449 L18.1724199,19.9461055 L17.689666,19.9461055 L17.689666,26.0326738 C17.689666,26.567709 18.1207676,27 18.6545176,27 L27.3454824,27 C27.8794375,27 28.3103477,26.5664922 28.3103477,26.0326738 L28.3103477,19.9461055 L28.310334,19.9460918 Z M28.310334,19.6982754 L27.3448262,19.6982754 L27.3448262,19.9461055 L28.310334,19.9461055 L28.310334,19.6982617 L28.310334,19.6982754 Z M17.6896523,19.9461055 C17.6896523,20.2196113 17.9166465,20.438498 18.1899746,20.4285449 C19.3235234,20.3872695 20.2241445,19.4552715 20.2241445,18.3178809 C20.2241445,18.2294102 20.2186758,18.1414863 20.2078203,18.0544922 L19.7287715,18.1142246 L19.7287715,18.5969785 L19.7539824,18.1142246 L19.2749336,18.0544785 C19.2640522,18.1418618 19.2586048,18.2298363 19.258623,18.3178945 C19.258623,19.4843516 20.2042246,20.4299531 21.3706953,20.4299531 C22.5371523,20.4299531 23.4827539,19.4843516 23.4827539,18.3178945 C23.4827539,18.2294102 23.4772852,18.1414863 23.4664434,18.0544922 L22.9873945,18.1142246 L22.9873945,18.5969785 L23.0126055,18.1142246 L22.5335566,18.0544785 C22.5226752,18.1418618 22.5172279,18.2298363 22.5172461,18.3178945 C22.5172461,19.4843516 23.4628477,20.4299531 24.6293047,20.4299531 C25.7957754,20.4299531 26.741377,19.4843516 26.741377,18.3178945 C26.741377,18.2294102 26.7359082,18.1414863 26.7250664,18.0544922 L26.2460039,18.1142246 L26.2460039,18.5969785 L26.2712285,18.1142246 L25.792166,18.0544785 C25.7812846,18.1418618 25.7758373,18.2298363 25.7758555,18.3178945 C25.7758555,19.4552578 26.6764766,20.3872695 27.8100254,20.4285449 L27.8451621,19.463666 C27.2303652,19.4412852 26.741377,18.935248 26.741377,18.3178945 C26.741377,18.2693594 26.7443711,18.2213438 26.7502637,18.173957 C26.7861934,17.885877 26.5615508,17.631457 26.2712285,17.631457 C25.9556816,17.631457 25.7310527,17.885877 25.7669687,18.173957 C25.772875,18.2213438 25.7758555,18.269373 25.7758555,18.3178945 C25.7758555,18.9511074 25.2625312,19.4644453 24.6293047,19.4644453 C23.9960918,19.4644453 23.4827539,18.9511074 23.4827539,18.3178945 C23.4827539,18.2693594 23.485748,18.2213438 23.4916543,18.173957 C23.527584,17.885877 23.3029277,17.631457 23.0126055,17.631457 C22.6970723,17.631457 22.4724297,17.885877 22.5083457,18.173957 C22.514252,18.2213438 22.5172324,18.269373 22.5172324,18.3178945 C22.5172324,18.9511074 22.0039082,19.4644453 21.3706953,19.4644453 C20.7374687,19.4644453 20.2241445,18.9511074 20.2241445,18.3178945 C20.2241445,18.2693594 20.227125,18.2213438 20.2330312,18.173957 C20.2689609,17.885877 20.0443047,17.631457 19.7539824,17.631457 C19.4384492,17.631457 19.2138066,17.885877 19.2497227,18.173957 C19.2556289,18.2213438 19.2586094,18.269373 19.2586094,18.3178945 C19.2586094,18.9352344 18.7696348,19.4412852 18.1548516,19.463666 L18.1724199,19.9461055 L18.6551738,19.9461055 L18.6551738,19.6982617 L17.6896523,19.6982617 L17.6896523,19.9460918 L17.6896523,19.9461055 Z" id="形状"></path>
            </g>
        </g>
    </g>
</svg>