<?xml version="1.0" encoding="UTF-8"?>
<svg width="14px" height="14px" viewBox="0 0 14 14" version="1.1" xmlns="http://www.w3.org/2000/svg" xmlns:xlink="http://www.w3.org/1999/xlink">
    <title>形状结合</title>
    <g id="智能车管" stroke="none" stroke-width="1" fill="none" fill-rule="evenodd">
        <g id="画板" transform="translate(-16.000000, -317.000000)" fill="#B0B1B4" fill-rule="nonzero">
            <g id="编组-27" transform="translate(0.000000, 304.000000)">
                <path d="M25.8965517,18.7217391 C28.1896552,18.7217391 30,20.5478261 30,22.8608696 C30,25.173913 28.1896552,27 25.8965517,27 C23.6034483,27 21.7931034,25.173913 21.7931034,22.8608696 C21.7931034,20.5478261 23.6034483,18.7217391 25.8965517,18.7217391 Z M25.8965517,19.6956522 C24.0862069,19.6956522 22.7586207,21.1565217 22.7586207,22.8608696 C22.7586207,24.5652174 24.2068966,26.026087 25.8965517,26.026087 C27.5862069,26.026087 29.0344828,24.5652174 29.0344828,22.8608696 C29.0344828,21.1565217 27.5862069,19.6956522 25.8965517,19.6956522 Z M26.0172414,13 C26.7413793,13 27.3448276,13.6086957 27.3448276,14.3391304 L27.3448276,14.3391304 L27.3448276,17.5043478 L26.3793103,17.5043478 L26.3793103,14.3391304 C26.3793103,14.2173913 26.2586207,13.973913 26.0172414,13.973913 L26.0172414,13.973913 L17.3275862,13.973913 C17.2068966,13.973913 16.9655172,14.0956522 16.9655172,14.3391304 L16.9655172,14.3391304 L16.9655172,24.4434783 C16.9655172,24.5652174 17.0862069,24.8086957 17.3275862,24.8086957 L17.3275862,24.8086957 L20.4655172,24.8086957 L20.4655172,25.7826087 L17.3275862,25.7826087 C16.6034483,25.7826087 16,25.173913 16,24.4434783 L16,24.4434783 L16,14.3391304 C16,13.6086957 16.6034483,13 17.3275862,13 L17.3275862,13 Z M26.0172414,21.0347826 L26.3793103,21.8869565 C26.3793103,22.0086957 26.5,22.0086957 26.5,22.0086957 L27.5862069,22.1304348 C27.7068966,22.1304348 27.8275862,22.373913 27.7068966,22.4956522 L26.9827586,23.226087 C26.862069,23.3478261 26.862069,23.3478261 26.862069,23.4695652 L26.9827586,24.4434783 C26.9827586,24.5652174 26.862069,24.6869565 26.7413793,24.6869565 L25.8965517,24.2 L25.6551724,24.2 L24.8103448,24.5652174 C24.6896552,24.6869565 24.4482759,24.4434783 24.5689655,24.3217391 L24.6896552,23.3478261 C24.6896552,23.226087 24.6896552,23.226087 24.5689655,23.1043478 L24.0862069,22.4956522 C23.9655172,22.373913 23.9655172,22.1304348 24.2068966,22.1304348 L25.1724138,22.0086957 C25.2931034,22.0086957 25.2931034,21.8869565 25.2931034,21.8869565 L25.6551724,21.0347826 C25.7758621,20.9130435 26.0172414,20.9130435 26.0172414,21.0347826 Z M20.3448276,20.3043478 C20.5862069,20.3043478 20.8275862,20.5478261 20.8275862,20.7913043 C20.8275862,21.0347826 20.5862069,21.2782609 20.3448276,21.2782609 L19.137931,21.2782609 C18.8965517,21.2782609 18.6551724,21.0347826 18.6551724,20.7913043 C18.6551724,20.5478261 18.8965517,20.3043478 19.137931,20.3043478 L20.3448276,20.3043478 Z M22.1551724,18.1130435 C22.3965517,18.1130435 22.637931,18.3565217 22.637931,18.6 C22.7586207,18.8434783 22.5172414,19.0869565 22.1551724,19.0869565 L19.0172414,19.0869565 C18.7758621,19.0869565 18.5344828,18.8434783 18.5344828,18.6 C18.5344828,18.3565217 18.7758621,18.1130435 19.0172414,18.1130435 L22.1551724,18.1130435 Z M24.5689655,15.8 C24.8103448,15.8 25.0517241,16.0434783 25.0517241,16.2869565 C25.0517241,16.6521739 24.8103448,16.773913 24.5689655,16.773913 L18.8965517,16.773913 C18.6551724,16.773913 18.4137931,16.5304348 18.4137931,16.2869565 C18.4137931,16.0434783 18.6551724,15.8 18.8965517,15.8 L24.5689655,15.8 Z" id="形状结合"></path>
            </g>
        </g>
    </g>
</svg>