<?xml version="1.0" encoding="UTF-8"?>
<svg width="14px" height="14px" viewBox="0 0 14 14" version="1.1" xmlns="http://www.w3.org/2000/svg" xmlns:xlink="http://www.w3.org/1999/xlink">
    <title>形状</title>
    <g id="智能车管" stroke="none" stroke-width="1" fill="none" fill-rule="evenodd">
        <g id="画板" transform="translate(-16.000000, -173.000000)" fill="#B0B1B4" fill-rule="nonzero">
            <g id="编组-29" transform="translate(0.000000, 160.000000)">
                <path d="M27.9825017,25.3959958 L27.9714817,25.4554515 C27.818099,26.3476176 27.123648,26.994238 26.3126828,27 C25.5224449,26.9852178 24.8430919,26.3685104 24.666354,25.5054852 L24.653884,25.4492785 L20.6727668,25.4492785 L20.6585568,25.5035359 C20.4755589,26.3486096 19.8001636,26.9436532 19.0239729,26.9436532 C18.2477822,26.9436532 17.5723869,26.3486096 17.389389,25.5035359 L17.376919,25.4492785 L16,25.4492785 L16,14 C16,13.4477153 16.4477153,13 17,13 L24.6224833,13 C25.1747681,13 25.6224833,13.4477153 25.6224833,14 L25.6224833,14.8021899 L25.6224833,14.8021899 L26.6224026,14.8021899 C26.9600337,14.8042538 27.2811717,14.9660307 27.506612,15.2476202 L29.6662405,18.6076498 C29.8881139,18.8459985 30.0092313,19.1786722 29.9994503,19.5228776 L29.9994503,25.3959958 L27.9825017,25.3959958 Z M26.3126828,26.1146624 C26.7166625,26.1333594 27.0902431,25.875131 27.256541,25.4622437 C27.4228389,25.0493564 27.3484764,24.5646806 27.0686629,24.2377016 C26.7888494,23.9107226 26.3597461,23.8070681 25.9845257,23.9758168 C25.6093053,24.1445654 25.3632781,24.5518477 25.3629335,25.0048228 C25.3522476,25.6048555 25.7771208,26.1013456 26.3126828,26.1146624 L26.3126828,26.1146624 Z M19.0249879,26.0620295 C19.429126,26.0807338 19.8028237,25.8222976 19.9690248,25.4091665 C20.135226,24.9960355 20.0605451,24.5111971 19.7803655,24.1843654 C19.500186,23.8575337 19.0707887,23.7543607 18.69562,23.9237294 C18.3204512,24.0930981 18.0748728,24.5009865 18.0752386,24.9541392 C18.0647209,25.5537699 18.4897713,26.0495946 19.0249879,26.0620295 L19.0249879,26.0620295 Z M24.8760238,13.8853376 L16.7510995,13.8853376 L16.7510995,20.984903 L24.8760238,20.984903 L24.8760238,13.8853376 Z M29.0934909,19.1053882 L26.9764924,15.8645949 C26.8872311,15.7487505 26.7563519,15.6837814 26.6197926,15.6875274 L25.6279933,15.6875274 L25.6279933,20.9845781 L29.2492208,20.9845781 L29.2492208,19.5225527 C29.2518457,19.3651919 29.1955584,19.2135643 29.0934909,19.1053882 Z M29.2483508,21.871865 L16.7510995,21.871865 L16.7510995,24.5684895 C16.7510995,24.5684895 17.2768691,24.5684895 17.3020991,24.566865 L17.3537191,24.5652405 L17.364739,24.5090338 C17.5101539,23.6119746 18.2069257,22.9594316 19.020734,22.9581558 C19.8345424,22.9568799 20.5329415,23.6072357 20.6805967,24.5038354 L20.6930667,24.5616667 L24.653884,24.5616667 L24.666354,24.5054599 C24.8299352,23.6450702 25.5031155,23.0259546 26.2882503,23.0138221 C27.073385,23.0016896 27.761551,23.5997685 27.9462517,24.4547764 L27.9604617,24.5090338 L29.2483508,24.5090338 L29.2483508,21.8705654 L29.2483508,21.871865 Z M19.9170273,17.5150295 L18.2878084,17.5150295 C18.1071451,17.5150295 17.9606886,17.3509504 17.9606886,17.1485485 C17.9606886,16.9461467 18.1071451,16.7820675 18.2878084,16.7820675 L19.9167373,16.7820675 C20.0974005,16.7820675 20.243857,16.9461467 20.243857,17.1485485 C20.243857,17.3509504 20.0974005,17.5150295 19.9167373,17.5150295 L19.9170273,17.5150295 Z M21.2220264,19.3487342 L18.2878084,19.3487342 C18.1071451,19.3487342 17.9606886,19.184655 17.9606886,18.9822532 C17.9606886,18.7798513 18.1071451,18.6157721 18.2878084,18.6157721 L21.2199964,18.6157721 C21.4001127,18.6164887 21.5456972,18.7804631 21.5454018,18.9822532 C21.546468,19.079511 21.5126037,19.1731752 21.4514047,19.2421659 C21.3902056,19.3111566 21.3068136,19.3496774 21.2199964,19.3490664 L21.2220264,19.3487342 Z" id="形状"></path>
            </g>
        </g>
    </g>
</svg>