<?xml version="1.0" encoding="UTF-8"?>
<svg width="32px" height="27px" viewBox="0 0 32 27" version="1.1" xmlns="http://www.w3.org/2000/svg" xmlns:xlink="http://www.w3.org/1999/xlink">
    <title>BSD</title>
    <defs>
        <linearGradient x1="50%" y1="0%" x2="50%" y2="100%" id="linearGradient-1">
            <stop stop-color="#CEDEFF" offset="0%"></stop>
            <stop stop-color="#CCDDFF" offset="63.1358712%"></stop>
            <stop stop-color="#A7C3FD" offset="100%"></stop>
        </linearGradient>
    </defs>
    <g id="大屏修改" stroke="none" stroke-width="1" fill="none" fill-rule="evenodd">
        <g id="高速产品大屏备份" transform="translate(-109, -745)" stroke="url(#linearGradient-1)" stroke-width="1.36069528">
            <g id="编组-15" transform="translate(-2, -0)">
                <g id="编组-11" transform="translate(74, 147)">
                    <g id="编组-12" transform="translate(20, 579)">
                        <path d="M35.1828035,20 C36.9157241,20 38.3205707,21.4011896 38.3205707,23.1295992 L38.3205707,26.3952678 C38.3205707,26.9213126 37.8930158,27.3477545 37.365598,27.3477545 L28.6344198,27.3477545 C28.1070021,27.3477545 27.6794472,26.9213126 27.6794472,26.3952678 L27.6794472,23.1295992 C27.6794472,21.4011896 29.0842938,20 30.8172144,20 L35.1828035,20 Z M27.6794472,30.2052146 C27.6794472,29.6791698 28.1070021,29.2527279 28.6344198,29.2527279 L37.365598,29.2527279 C37.8930158,29.2527279 38.3205707,29.6791698 38.3205707,30.2052146 L38.3205707,40.0022207 C38.3205707,40.5282655 37.8930158,40.9547074 37.365598,40.9547074 L28.6344198,40.9547074 C28.1070021,40.9547074 27.6794472,40.5282655 27.6794472,40.0022207 L27.6794472,30.2052146 Z M47.9539525,35.6620926 C48.1231736,37.4592989 47.8240762,39.2754461 47.0882561,40.9189483 C46.3524361,42.562396 45.2071238,43.9722941 43.7731369,45 L42.7622847,43.4523452 C43.9276788,42.6171504 44.8584769,41.4712817 45.4565081,40.1356232 C46.0545392,38.7999647 46.2975934,37.3239369 46.1600773,35.8633122 L47.9539525,35.6620926 Z M44.1652759,35.7299096 C44.4805261,36.9766331 44.3687124,38.2995554 43.8491527,39.4689914 C43.3295931,40.6384818 42.4350838,41.5806816 41.3209309,42.1321442 L40.6098856,40.5593437 C41.3728814,40.1816691 41.9854282,39.5364274 42.3412237,38.7355766 C42.6970192,37.9346714 42.7735807,37.0287749 42.5577023,36.1749658 L44.1652759,35.7299096 Z M18.0460381,35.6620926 L19.8399405,35.8633122 C19.7024245,37.3239369 19.9454786,38.7999647 20.5435098,40.1356232 C21.1415409,41.4712817 22.0723391,42.6171504 23.2377331,43.4523452 L22.226881,45 C20.7928941,43.9722941 19.6475818,42.562396 18.9117563,40.9189483 C18.1759308,39.2754461 17.8768388,37.4592989 18.0460381,35.6620926 Z M21.8350148,35.7299096 L23.4425884,36.1749658 C23.22671,37.0287749 23.3032715,37.9346714 23.659067,38.7355766 C24.0148625,39.5364274 24.6274093,40.1816691 25.3904051,40.5593437 L24.6793598,42.1321442 C23.5651523,41.5806816 22.6706977,40.6384818 22.151138,39.4689914 C21.6315783,38.2995554 21.5197647,36.9766331 21.8350148,35.7299096 Z" id="BSD"></path>
                    </g>
                </g>
            </g>
        </g>
    </g>
</svg>