<?xml version="1.0" encoding="UTF-8"?>
<svg width="32px" height="25px" viewBox="0 0 32 25" version="1.1" xmlns="http://www.w3.org/2000/svg" xmlns:xlink="http://www.w3.org/1999/xlink">
    <title>DMS</title>
    <defs>
        <linearGradient x1="50%" y1="0%" x2="50%" y2="100%" id="linearGradient-1">
            <stop stop-color="#C5D8FE" offset="0%"></stop>
            <stop stop-color="#B6CEFF" offset="63.1358712%"></stop>
            <stop stop-color="#9DBCFF" offset="100%"></stop>
        </linearGradient>
        <linearGradient x1="50%" y1="0%" x2="50%" y2="100%" id="linearGradient-2">
            <stop stop-color="#C5D8FE" offset="0%"></stop>
            <stop stop-color="#B6CEFF" offset="63.1358712%"></stop>
            <stop stop-color="#9DBCFF" offset="100%"></stop>
        </linearGradient>
    </defs>
    <g id="大屏修改" stroke="none" stroke-width="1" fill="none" fill-rule="evenodd">
        <g id="高速产品大屏备份" transform="translate(-111, -820)" fill-rule="nonzero">
            <g id="编组-15" transform="translate(-2, -0)">
                <g id="编组-11" transform="translate(74, 147)">
                    <g id="编组-12" transform="translate(20, 656)">
                        <g id="DMS" transform="translate(19.5677, 17)">
                            <path d="M26.484682,12.0222151 C28.9996729,13.0663109 30.6394906,15.5260134 30.6394906,18.2543672 C30.6360342,21.9784414 27.6247399,24.9965357 23.9090563,25 C21.1868497,25 18.7326891,23.3564794 17.6909457,20.8358091 C16.6492023,18.3151389 17.2250297,15.413722 19.1499204,13.4844845 C21.0748112,11.5552471 23.969691,10.9781194 26.484682,12.0222151 Z M23.9090563,12.7686314 C21.6937292,12.7686314 19.6965966,14.1062941 18.8491208,16.1577329 C18.0016449,18.2091717 18.4707668,20.5702821 20.037688,22.1398427 C21.6046092,23.7094033 23.9606681,24.1782326 26.0069993,23.3276686 C28.0533304,22.4771045 29.3868352,20.4746965 29.385568,18.2543672 C29.3821092,15.2248891 26.9317102,12.7703625 23.9090563,12.7686314 Z M10.9219526,0 C13.9282341,0 16.373385,2.27786855 16.3733849,5.07729043 L16.3733849,6.34975493 C16.904609,6.78230901 17.1641483,7.4667866 17.0536384,8.14377278 C16.9767326,8.79532943 16.7857153,9.42817337 16.4893729,10.0131959 C16.3202857,10.2591538 16.1078148,10.4721044 15.8624111,10.6415735 C15.8624111,11.8197813 15.6899966,13.5980897 13.9501778,14.374136 L13.9501778,14.8674124 C13.9553205,14.9368819 13.9779713,15.0039068 14.0160088,15.0622094 L16.4893729,15.8698889 C16.323612,16.5628011 16.2099377,16.9282359 16.1483499,16.9661933 C16.0454836,17.0295912 14.9846496,16.6106729 12.9658478,15.7094382 C12.7997394,15.4517024 12.709555,15.1522241 12.7056587,14.8454191 L12.7056587,13.9028528 C12.7048357,13.6253094 12.885782,13.3800971 13.1508016,13.2996104 C14.3859162,12.9288677 14.617892,11.9485987 14.617892,10.2771145 C14.6171782,10.0623557 14.725945,9.86210466 14.9062944,9.74613547 C15.0922379,9.63208674 15.2637981,9.4960055 15.4172683,9.34083198 C15.6238438,8.89034846 15.7582029,8.41001677 15.815389,7.91755686 C15.8577588,7.67378578 15.7534451,7.42778748 15.5489302,7.28917935 L15.3859202,7.17607139 C15.2185426,7.05817291 15.1190839,6.8658429 15.1194614,6.66080181 L15.1194614,5.07729043 C15.1194614,2.96908381 13.2354414,1.25675505 10.9219526,1.25675505 C8.60846371,1.25675505 6.72444364,2.96908381 6.72444364,5.07729043 L6.72444364,6.67022747 C6.72410604,6.87584744 6.62341644,7.06829377 6.45485011,7.18549705 L6.29497486,7.298605 C6.09299895,7.4394771 5.98845539,7.68315066 6.0253813,7.92698252 C6.08459661,8.42683906 6.22102405,8.91442306 6.42977163,9.37225085 C6.58426998,9.52091464 6.75336394,9.65354788 6.93447583,9.76812869 C7.11123963,9.88630319 7.2162557,10.086166 7.21347381,10.2991077 C7.21347381,11.9705919 7.44544965,12.9508609 8.6774295,13.3216036 C8.94244909,13.4020904 9.12339535,13.6473026 9.12257234,13.924846 L9.12257234,14.8674124 C9.12257234,15.7094382 8.82875859,15.8698889 7.57414483,16.2885756 C6.31953107,16.7072624 3.81772898,16.6080181 1.58577649,17.642553 C0.943214268,17.9403877 0.760723553,19.3549617 1.03830434,21.8862749 C5.36823056,21.8317789 8.85496941,21.8029886 11.4985209,21.7999039 L12.4137737,21.7999039 C14.8549603,21.8029886 16.4529594,21.8317789 17.2077712,21.8862749 C18.5026137,21.9797601 17.8591313,22.9990112 17.7613101,23.0351785 C17.7398965,23.0430958 17.0913698,23.0484133 15.8157299,23.0511312 L15.4522799,23.0518079 C15.3891135,23.05191 15.3246515,23.0520067 15.2588937,23.052098 L14.4076076,23.0529359 C14.3314843,23.0529842 14.2540653,23.0530272 14.1753507,23.0530648 L12.331877,23.0530648 C12.2350228,23.0530272 12.1368728,23.0529842 12.0374271,23.0529359 L10.7818863,23.052098 C10.6720751,23.0520067 10.5609683,23.05191 10.4485657,23.0518079 L9.75860223,23.0511312 C7.17172586,23.0484133 3.95773636,23.0430958 0.116633736,23.0351785 C-0.143191889,19.4366947 0.0310937331,17.4136996 0.639490602,16.9661933 C1.24788747,16.518687 3.46742849,16.0044647 7.29811366,15.4235265 L7.34200098,15.407817 C7.63040338,15.3135604 7.88118807,15.0559256 7.88118807,14.8548448 L7.88118807,14.3615684 C6.14450402,13.5855222 6.00030282,11.8072138 5.97208956,10.6290059 C5.72752373,10.4585306 5.51521901,10.2457465 5.3451278,10.0006284 C5.05137831,9.41479876 4.86150652,8.78223545 4.78399705,8.13120522 C4.67348715,7.45421905 4.93302653,6.76974146 5.46425055,6.33718738 L5.46425055,5.07729043 C5.47052015,2.27786855 7.91567097,0 10.9219526,0 Z" id="形状结合" fill="url(#linearGradient-1)"></path>
                            <path d="M22.7460422,23.0928742 C22.6655753,23.0932405 22.5854303,23.0826713 22.5077968,23.0614553 C20.8615932,22.6011317 19.5752201,21.3118538 19.1159337,19.6619329 C19.043909,19.3944693 19.0999208,19.1086478 19.2675295,18.8883569 C19.4351382,18.668066 19.6953292,18.538297 19.9717365,18.5371371 L21.3792656,18.5371371 C21.7389629,18.5313825 22.0672607,18.7416708 22.2131247,19.071258 C22.3894521,19.4743671 22.710614,19.7962542 23.1128148,19.9729798 C23.4388657,20.1150039 23.6503874,20.4367006 23.6520034,20.7930125 L23.6520034,22.2005781 C23.6524979,22.4793425 23.5225236,22.7422043 23.3009033,22.9106447 C23.1413064,23.0315237 22.946066,23.0956452 22.7460422,23.0928742 L22.7460422,23.0928742 Z M20.1629598,17.9087596 C19.9266042,17.9050526 19.701273,17.8079414 19.5359981,17.6385573 C19.3135552,17.4094932 19.2320209,17.0778129 19.3228311,16.7713963 C19.92963,14.7353037 21.7982678,13.3400963 23.9184607,13.3400963 C26.0386535,13.3400963 27.9072913,14.7353037 28.5140903,16.7713963 C28.6043434,17.0772836 28.524196,17.4081886 28.3040581,17.6385573 C28.079013,17.8674984 27.7491066,17.9585473 27.4388509,17.8773407 C26.2867875,17.5959408 25.10418,17.4597868 23.9184607,17.4720372 C22.7337737,17.4597533 21.5521989,17.5959095 20.4012053,17.8773407 C20.3234181,17.8977812 20.243375,17.9083369 20.1629598,17.9087596 L20.1629598,17.9087596 Z M25.0344526,23.0928742 C24.8397864,23.0921948 24.6505912,23.0282524 24.4952655,22.9106447 C24.2727622,22.7415386 24.1426849,22.4773045 24.1441544,22.1974362 L24.1441544,20.777303 C24.1473856,20.4214793 24.3583834,20.1005795 24.683354,19.9572703 C25.0897308,19.7759903 25.4147117,19.4502754 25.5955834,19.042981 C25.7385696,18.7172766 26.0587464,18.5058023 26.4137684,18.5025758 L27.8557805,18.5025758 C28.1349894,18.5022619 28.3982903,18.6327917 28.5674845,18.8553991 C28.7366787,19.0780065 28.7923088,19.3670916 28.7178529,19.6367978 C28.2543543,21.2984397 26.9588094,22.5969101 25.3009113,23.0614553 C25.2141669,23.0852641 25.1243417,23.0958557 25.0344526,23.0928742 L25.0344526,23.0928742 Z" id="形状" fill="url(#linearGradient-2)"></path>
                        </g>
                    </g>
                </g>
            </g>
        </g>
    </g>
</svg>