<?xml version="1.0" encoding="UTF-8"?>
<svg width="30px" height="25px" viewBox="0 0 30 25" version="1.1" xmlns="http://www.w3.org/2000/svg" xmlns:xlink="http://www.w3.org/1999/xlink">
    <title>FCW</title>
    <defs>
        <linearGradient x1="50%" y1="0%" x2="50%" y2="100%" id="linearGradient-1">
            <stop stop-color="#C5D8FE" offset="0%"></stop>
            <stop stop-color="#B6CEFF" offset="63.1358712%"></stop>
            <stop stop-color="#9DBCFF" offset="100%"></stop>
        </linearGradient>
    </defs>
    <g id="大屏修改" stroke="none" stroke-width="1" fill="none" fill-rule="evenodd">
        <g id="高速产品大屏备份" transform="translate(-110, -669)" fill="url(#linearGradient-1)" fill-rule="nonzero">
            <g id="编组-15" transform="translate(-2, -0)">
                <g id="编组-11" transform="translate(74, 147)">
                    <g id="编组-12" transform="translate(20, 502)">
                        <g id="FCW" transform="translate(18, 20)">
                            <path d="M7.42413254,6.45270069 C8.86817138,6.07166531 10.3653617,5.92966667 11.8557231,6.03239354 C12.8864551,6.16879929 13.9261015,6.2541915 14.9423476,6.45713663 C15.7115792,6.61603526 16.3413177,7.16369202 16.6026618,7.90104137 C17.1222003,9.16452393 17.6653324,10.4182694 18.2317756,11.6616258 C18.3237508,11.8883858 18.5137873,12.0616192 18.748813,12.1329465 C19.5725056,11.9517814 20.3883954,12.4673358 20.5740444,13.2862959 L20.6206239,13.4669918 C20.6542481,13.6417582 20.6589712,13.8212311 20.6342169,13.9982674 L19.48314,14.4607161 C19.5923281,14.9100345 19.6786112,15.3645617 19.7416587,15.8225556 C19.9299762,17.9240913 20.1116079,20.024518 20.2430959,22.1282717 C20.2655554,22.507835 20.1748432,22.8855427 19.9823485,23.2139728 C18.9179425,23.5463056 17.7997663,23.6742618 16.687349,23.5910293 C15.8783637,23.1252536 16.2761705,22.1803942 15.970851,21.4728587 L5.98222204,22.4188271 C5.96550744,23.1707222 5.84070531,23.9181813 5.61561572,24.6368067 C4.51765703,24.9593819 3.36756587,25.0685713 2.2281289,24.9584137 C1.9584671,24.6223898 1.79466429,24.2153906 1.75454931,23.7828845 C1.62640427,22.9034556 1.58851789,22.0085008 1.52277391,21.121309 L1.18291091,16.1530346 L0.0563486741,15.9412176 C0.00174772627,15.7582342 -0.0116239323,15.56527 0.00954786913,15.3756327 C0.214579976,14.4695881 0.556671582,13.7431997 1.55843166,13.7431997 C1.58851789,13.7431997 1.61748981,13.7465267 1.65091896,13.7465267 C1.85268281,13.6401993 1.99702628,13.4506884 2.04538288,13.2286285 C2.3250734,12.1673252 2.63039295,11.1071309 2.80422451,10.0203209 C3.01418339,8.47201231 4.18313597,7.22417174 5.72036039,6.90738651 C6.27862713,6.73327512 6.85806565,6.60130532 7.42413254,6.45270069 Z M20.3375644,8.02846487 C21.5542173,7.93987271 22.7778408,8.05848154 23.9499805,8.37862521 C24.4130178,8.50637102 24.879682,8.61814858 25.3378834,8.7630032 C26.639147,9.07485584 27.5917993,10.1252409 27.7171454,11.3863544 C27.8585954,12.299965 28.1064352,13.1930449 28.3337224,14.0872655 C28.3691064,14.269828 28.4863395,14.4290778 28.6553096,14.5241105 C28.6819071,14.5218294 28.7072956,14.5218294 28.731475,14.5218294 C29.5463239,14.5218294 29.826806,15.1320437 29.9912266,15.8916749 C30.0093612,16.0502166 29.9984804,16.21218 29.9537484,16.3730028 L29.0361366,16.5486533 L28.7556545,20.7346093 C28.7024597,21.4839753 28.6698173,22.2379036 28.5658455,22.9781449 C28.540457,23.3351488 28.4074698,23.677325 28.1826006,23.9647531 C27.2518601,24.0579396 26.3107503,23.9658493 25.4200936,23.6944338 C25.2367636,23.0861841 25.136415,22.4583574 25.1214769,21.8261516 L22.1111301,21.5307394 C21.9902327,19.7434388 21.8403198,17.9549977 21.6867801,16.1699783 C21.6275403,15.7000562 21.5417031,15.2346965 21.4292685,14.7727586 C23.3507706,14.9671513 25.2904928,14.934199 27.2033311,14.6746681 C26.8926247,13.3447431 26.6302772,12.1186115 26.305063,10.9152918 C26.1986733,10.6677843 25.9895207,10.4704627 25.7235462,10.3723721 C25.1843436,10.1442547 24.6137076,9.98799415 24.0297728,9.90701245 C22.4182097,9.76786076 20.8066466,9.66292672 19.1926655,9.58764794 C19.0052744,9.14167823 18.8239282,8.69342735 18.642582,8.24517648 C19.2071732,8.16191361 19.7741822,8.10602481 20.3375644,8.02846487 Z M17.6322796,14.2411362 L17.4918771,14.2899317 C14.2537072,15.3756327 10.8807063,15.9256917 7.46313323,15.9256917 C6.04016588,15.9256917 4.60159827,15.8281006 3.19200261,15.6362453 L2.88445446,15.5963217 L2.91454069,16.0399176 C2.92345515,16.1375087 2.92791238,16.2373178 2.93682681,16.3371269 C2.95525712,16.5782493 3.10559689,16.7896819 3.32794782,16.8871858 C4.24039877,17.122348 5.13365531,17.4127533 6.00562244,17.7588518 C6.25514458,17.8941606 6.42181541,18.1429744 6.45134438,18.4242457 C6.34089563,18.697479 6.11823063,18.9106053 5.839591,19.0097924 C5.48524207,19.1206913 5.11863575,19.1905577 4.74534363,19.2149555 C4.44670991,19.2238274 4.1469619,19.2238274 3.84832819,19.2127375 C3.66526292,19.2063235 3.48806164,19.2775236 3.36078504,19.408634 C3.23350844,19.5397443 3.16811315,19.7184482 3.18085957,19.9003112 L3.25774661,21.004865 L3.29786159,21.6137005 C3.33686225,22.1881572 3.37140571,22.7326712 3.43714969,23.2605503 C3.68104567,23.2470103 3.92420857,23.2225879 4.16590508,23.187357 C4.20729452,22.9204444 4.2311171,22.6511255 4.2372206,22.3811214 L4.27176403,20.8396255 L5.81507631,20.6932389 L15.8048195,19.7483796 L17.0684413,19.6263907 L17.5698785,20.79083 C17.7121897,21.1336958 17.7994286,21.4967049 17.8283972,21.8665501 C18.046801,21.8499153 18.2607475,21.8255175 18.4702368,21.7900298 C18.4000356,20.7231816 18.317577,19.6596604 18.2284327,18.5894852 C18.1905463,18.1458893 17.7682247,17.8375901 17.3336458,17.9373992 C17.1052134,17.9884127 16.8734379,18.0349903 16.6394339,18.0749139 C16.1714258,18.1048567 15.7011892,18.1048567 15.2298382,18.0749139 C14.9848195,18.0770805 14.7693198,17.9167462 14.6988664,17.6831916 C14.6284129,17.449637 14.7195437,17.1976857 14.9234044,17.0624063 C15.7145608,16.5622518 16.5391465,16.109784 17.3871325,15.7149836 C17.7053898,15.5693641 17.8754122,15.2197844 17.7927395,14.8810233 L17.6322796,14.2411362 Z M26.4758266,17.1962335 C25.5630603,17.3103691 24.6317083,17.3704404 23.7127467,17.3704404 L23.4680345,17.3674369 C23.54341,18.2865283 23.6208506,19.2396602 23.6931285,20.2058075 L24.9115269,20.3279526 L26.2641557,20.4621119 C26.2734486,20.2859026 26.285839,20.1096934 26.2961645,19.9414936 C26.3116526,19.7162261 26.1247626,19.5260002 25.8934735,19.5260002 C25.7974471,19.5260002 25.7014208,19.5229966 25.6053945,19.5209943 C25.3462267,19.503974 25.0922216,19.4529134 24.8444118,19.3698147 C24.6451313,19.2907208 24.4881851,19.132533 24.4159072,18.9362999 C24.4346638,18.7356881 24.5493264,18.5552044 24.7256695,18.4487209 C25.1975408,18.2494843 25.6787049,18.0762786 26.1681294,17.9281027 C26.3261081,17.8780432 26.4396877,17.7388779 26.4500131,17.5776865 Z M13.9149585,7.84891886 C13.865929,7.84891886 13.8191282,7.85224583 13.7700988,7.8544638 C11.6183761,7.95205491 9.47222492,8.07626178 7.32830233,8.2581361 C6.61254467,8.35310198 5.91214487,8.53985415 5.24455219,8.81374 C4.92920393,8.92131202 4.67291382,9.15419988 4.53474,9.4569541 C4.13470456,10.887551 3.81378475,12.3414366 3.43492109,13.9217471 C7.97573583,14.5418296 12.5991604,14.1064416 16.9425248,12.6497358 C16.4611451,11.4176481 15.9875656,10.3297291 15.6087019,9.20521339 C15.4328522,8.41419535 14.7289867,7.85056279 13.9149585,7.84891886 Z M18.978546,1.9563232 L18.5273256,6.30148321 L16.9134639,2.80433025 L18.978546,1.9563232 Z M22.6967263,0 L24.9910326,1.94130537 L19.5712246,6.24741901 L22.6967263,0 Z M12.2019791,0.468556426 L16.7678756,5.6787437 L10.3826417,2.87541465 L12.2019791,0.468556426 Z"></path>
                        </g>
                    </g>
                </g>
            </g>
        </g>
    </g>
</svg>