<?xml version="1.0" encoding="UTF-8"?>
<svg width="31px" height="25px" viewBox="0 0 31 25" version="1.1" xmlns="http://www.w3.org/2000/svg" xmlns:xlink="http://www.w3.org/1999/xlink">
    <title>IACC</title>
    <defs>
        <linearGradient x1="50%" y1="0%" x2="50%" y2="100%" id="linearGradient-1">
            <stop stop-color="#C5D8FE" offset="0%"></stop>
            <stop stop-color="#B6CEFF" offset="63.1358712%"></stop>
            <stop stop-color="#9DBCFF" offset="100%"></stop>
        </linearGradient>
    </defs>
    <g id="大屏修改" stroke="none" stroke-width="1" fill="none" fill-rule="evenodd">
        <g id="高速产品大屏备份" transform="translate(-111, -900)" fill="url(#linearGradient-1)">
            <g id="编组-15" transform="translate(-2, -0)">
                <g id="编组-11" transform="translate(74, 147)">
                    <g id="编组-12" transform="translate(20, 733)">
                        <path d="M35.2431431,31.6013012 C38.300417,31.6013012 41.2324091,32.7957952 43.3942143,34.9219626 C45.5560194,37.04813 46.770535,39.9317876 46.770535,42.9386617 L46.770535,44.4846654 L43.3647146,44.4846654 C42.9306559,44.4846654 42.5787561,44.1385667 42.5787561,43.7116636 C42.5787561,43.2847604 42.9306559,42.9386617 43.3647146,42.9386617 L45.0573549,42.9386617 C45.0573549,41.9019713 44.8877932,40.8824706 44.5637684,39.9160329 L43.1329851,40.5969747 C42.6873048,40.8088702 42.1540809,40.6231988 41.9363977,40.1803165 L41.9299775,40.1672544 C41.928267,40.1637744 41.9265792,40.1602832 41.9249142,40.1567812 C41.7131445,39.7113657 41.9025519,39.1786119 42.3479674,38.9668423 L43.829035,38.2628785 C43.3889283,37.4811023 42.8367983,36.7565214 42.1828426,36.1133646 C41.8974069,35.8326264 41.5961982,35.5709684 41.281265,35.3292246 L40.1827174,36.7702867 C39.8840475,37.1618375 39.3265015,37.2413991 38.9302344,36.9490155 L38.9109385,36.9347781 C38.9070985,36.9319448 38.9032812,36.9290809 38.8994869,36.9261867 C38.5055517,36.6256981 38.4297983,36.0627564 38.7302869,35.6688212 L39.7327375,34.355394 C38.5865539,33.7755116 37.328635,33.4198972 36.0294617,33.3172454 L36.0291016,34.8221423 C36.0291016,35.3202123 35.6253361,35.7239778 35.1272661,35.7239778 L35.0970339,35.7239778 C34.5989639,35.7239778 34.1951984,35.3202123 34.1951984,34.8221423 L34.1952217,33.3413868 C32.8687326,33.481446 31.5906297,33.8855853 30.4369599,34.5228444 L31.5467233,35.9780716 C31.659243,36.1255828 31.7190071,36.2967916 31.7290642,36.4690441 L35.0975312,40.1243681 C35.1691976,40.2021189 35.2294011,40.2859874 35.2782928,40.3740111 L35.3436946,40.3673389 L35.5051293,40.3619889 C36.807348,40.3619889 37.8630049,41.400243 37.8630049,42.6809944 C37.8630049,43.9617458 36.807348,45 35.5051293,45 C34.2029105,45 33.1472537,43.9617458 33.1472537,42.6809944 C33.1472537,42.4329409 33.1868527,42.1939837 33.2601725,41.9699041 C33.159247,41.8835803 33.0692106,41.7793437 32.9955637,41.6586222 L30.3335776,37.2977425 C30.2437038,37.2416494 30.1622899,37.1686783 30.0942937,37.0795366 L28.9843378,35.6244053 L28.9314228,35.5471212 C28.7147028,35.7261461 28.5051355,35.914992 28.3034436,36.1133646 C27.6614794,36.7447279 27.1176408,37.4545565 26.6815747,38.2199303 L28.0379119,38.864969 C28.041414,38.8666341 28.0449051,38.8683219 28.0483852,38.8700324 C28.4910033,39.0875887 28.6734519,39.6227658 28.4558956,40.0653838 L28.4494751,40.0784464 C28.2317895,40.5213274 27.6985646,40.706996 27.2528854,40.4950981 L25.9380211,39.8701788 C25.6039036,40.8501989 25.4289312,41.8855612 25.4289312,42.9386617 L27.1215715,42.9386617 C27.5556302,42.9386617 27.9075301,43.2847604 27.9075301,43.7116636 C27.9075301,44.1385667 27.5556302,44.4846654 27.1215715,44.4846654 L23.7157512,44.4846654 L23.7157512,42.9386617 C23.7157512,39.9317876 24.9302668,37.04813 27.0920719,34.9219626 C29.2538771,32.7957952 32.1858692,31.6013012 35.2431431,31.6013012 Z M27.1930938,20.002563 C27.4646686,20.0042637 27.7750175,20.0062735 28.1339909,20.0062735 L28.9451409,20.0069268 C30.5325155,20.0110648 31.3492759,20.0414099 31.8017974,20.2639407 C32.8639418,20.7862839 33.9332122,21.5523287 34.1951984,21.8099444 C34.9557367,22.5579451 35.9480516,23.9107255 36.2197047,24.4482145 C37.1721828,24.6119328 37.8630049,25.0993626 37.8630049,25.6749537 C37.8630049,26.2356447 37.2074858,26.7126798 36.2923548,26.8897364 L36.2910878,29.5400145 C36.2910878,29.9132198 36.1472574,30.2899294 35.908588,30.6414391 C35.1257209,30.5699622 34.3345226,30.5771253 33.5472018,30.6647322 C31.7976581,30.8593225 30.1193222,31.4452064 28.6396243,32.3743546 L24.763,32.374 L24.7636959,33.1473049 C24.7636959,34.0011392 24.0715265,34.6933086 23.2176922,34.6933086 L23.1658655,34.6933086 C22.3120312,34.6933086 21.6198618,34.0011392 21.6198618,33.1473049 L21.6196591,31.4068602 C21.013435,30.9272401 20.5719171,30.1435142 20.5719171,29.5400145 L20.5706501,26.8897364 C19.6555191,26.7126798 19,26.2356447 19,25.6749537 C19,25.109364 19.6670234,24.6288985 20.5946952,24.4555991 C20.7629437,23.6450032 21.9129949,22.2865902 22.4058203,21.8099444 C23.3708726,20.8766735 24.2041983,20.521608 24.8125302,20.2639407 C25.4560206,19.9914318 25.8521961,19.993957 27.1930938,20.002563 Z M47.1933782,23.9193634 L49.5021576,25.1371505 C49.62964,25.2044532 49.6775835,25.3605996 49.6092051,25.4860321 L47.935,28.556 L49.8618122,29.5722229 C50.0596118,29.6765782 50.0411679,29.961249 49.8314742,30.0400436 L44.4982216,32.0432006 C44.3491514,32.0992175 44.1842049,32.012229 44.1491512,31.8591231 L42.8951805,26.3813743 C42.8458747,26.166016 43.0767893,25.9933789 43.2745889,26.0976827 L45.164,27.094 L46.8386489,24.0246463 C46.9070273,23.8992654 47.0658433,23.8521123 47.1933782,23.9193634 Z M28.4062994,22.3257943 L27.8055761,22.3256295 C26.2764261,22.3300366 25.3093724,22.3920549 24.5017098,22.9637785 C23.9525343,23.3525469 23.6149913,23.8847329 23.4203356,24.2930841 C23.2769768,24.5938848 23.5150698,24.9020034 23.8528748,24.9020034 L32.8982096,24.9020034 C33.2687105,24.9020034 33.5135627,24.5374042 33.3351502,24.2181029 C33.1050215,23.8061444 32.7683169,23.2983337 32.3612951,22.9637785 C31.7638094,22.4726132 30.984191,22.3262581 28.834542,22.3262581 C28.6874629,22.3262581 28.5447853,22.3260005 28.4062994,22.3257943 Z" id="IACC"></path>
                    </g>
                </g>
            </g>
        </g>
    </g>
</svg>