<?xml version="1.0" encoding="UTF-8"?>
<svg width="30px" height="30px" viewBox="0 0 30 30" version="1.1" xmlns="http://www.w3.org/2000/svg" xmlns:xlink="http://www.w3.org/1999/xlink">
    <title>SP</title>
    <defs>
        <linearGradient x1="50%" y1="0%" x2="50%" y2="100%" id="linearGradient-1">
            <stop stop-color="#C5D8FE" offset="0%"></stop>
            <stop stop-color="#B6CEFF" offset="63.1358712%"></stop>
            <stop stop-color="#9DBCFF" offset="100%"></stop>
        </linearGradient>
    </defs>
    <g id="大屏修改" stroke="none" stroke-width="1" fill="none" fill-rule="evenodd">
        <g id="高速产品大屏备份" transform="translate(-110, -974)" fill="url(#linearGradient-1)">
            <g id="编组-15" transform="translate(-2, -0)">
                <g id="编组-11" transform="translate(74, 147)">
                    <g id="编组-12" transform="translate(20, 810)">
                        <path d="M33,17 C41.2842931,17 48,23.7157069 48,32 C48,40.2842931 41.2842931,47 33,47 C24.7157069,47 18,40.2842931 18,32 C18,23.7157069 24.7157069,17 33,17 Z M33,19.5641207 C27.9103966,19.5641207 23.5349483,22.6215862 21.6101379,26.9999828 L28.0382069,26.9999828 C28.1796724,26.4258448 28.6980517,26 29.3158966,26 L36.6843103,26 C37.3021034,26 37.8204828,26.4258448 37.9619483,26.9999828 L44.3898621,26.9999828 C42.4650517,22.6215862 38.0896034,19.5641207 33,19.5641207 Z M28.0000862,32 L28.0000862,32.9999828 C28.0000862,36.3137414 30.2386552,38.9999828 33.0001034,38.9999828 C35.7615,38.9999828 38.000069,36.3137414 38.000069,32.9999828 L38.000069,32 L45.4358793,32 C45.4358793,35.1757069 44.2455517,38.0733448 42.2867069,40.2711552 C41.7895345,40.2986207 41.226569,40.4642414 40.6837759,40.7703966 C39.7084655,41.320431 39.0876724,42.1606897 39.0677069,42.8577241 C37.2728793,43.8628793 35.2033448,44.4358793 33,44.4358793 C30.9310345,44.4358793 28.9801034,43.9306379 27.2637931,43.0367931 C27.3582931,42.3096552 26.7169138,41.368431 25.6564138,40.7703966 C24.9865345,40.3926034 24.2860345,40.2287931 23.7163448,40.274569 C21.7556897,38.0763448 20.5641207,35.1773103 20.5641207,32 L28.0000862,32 Z" id="SP"></path>
                    </g>
                </g>
            </g>
        </g>
    </g>
</svg>