<?xml version="1.0" encoding="UTF-8"?>
<svg width="15px" height="18px" viewBox="0 0 15 18" version="1.1" xmlns="http://www.w3.org/2000/svg" xmlns:xlink="http://www.w3.org/1999/xlink">
    <title>定位</title>
    <g id="大屏修改" stroke="none" stroke-width="1" fill="none" fill-rule="evenodd">
        <g id="高速产品大屏备份" transform="translate(-277, -73)" fill="#4682DE" fill-rule="nonzero">
            <g id="编组-15" transform="translate(-2, -0)">
                <g id="编组-13" transform="translate(82, 64)">
                    <g id="编组-33" transform="translate(0, 6)">
                        <g id="编组-7" transform="translate(197, 0)">
                            <g id="定位" transform="translate(0, 3)">
                                <path d="M7.49889232,0 C3.35725387,0 0,3.33640441 0,7.45617651 C0,9.51388047 0.839313468,11.3773791 2.19715568,12.7280883 L7.49889232,18 L12.8028261,12.7280883 C14.2134001,11.3271912 15.002179,9.43096133 14.9999864,7.45617651 C14.9977846,3.33640441 11.6405308,0 7.49889232,0 Z M9.86083468,9.79536914 C9.23464531,10.4172627 8.38654322,10.7663959 7.49889232,10.768578 C6.61124143,10.7663959 5.76313934,10.4150806 5.13694997,9.79318705 C4.5107606,9.17129349 4.16141285,8.32900958 4.16359971,7.45399442 C4.16141285,6.57679719 4.5107606,5.73669536 5.13694997,5.11480179 C5.76313934,4.49290823 6.61124143,4.143775 7.49889232,4.14159292 C8.38654322,4.143775 9.23464531,4.49509031 9.86083468,5.11698388 C10.487024,5.73887744 10.8363718,6.58116135 10.8341849,7.45617651 C10.8363718,8.33119166 10.487024,9.17347557 9.86083468,9.79536914 Z" id="形状"></path>
                            </g>
                        </g>
                    </g>
                </g>
            </g>
        </g>
    </g>
</svg>