<?xml version="1.0" encoding="UTF-8"?>
<svg width="31px" height="24px" viewBox="0 0 31 24" version="1.1" xmlns="http://www.w3.org/2000/svg" xmlns:xlink="http://www.w3.org/1999/xlink">
    <title>形状结合</title>
    <defs>
        <linearGradient x1="50%" y1="0%" x2="50%" y2="100%" id="linearGradient-1">
            <stop stop-color="#C5D8FE" offset="0%"></stop>
            <stop stop-color="#B6CEFF" offset="63.1358712%"></stop>
            <stop stop-color="#9DBCFF" offset="100%"></stop>
        </linearGradient>
    </defs>
    <g id="大屏修改" stroke="none" stroke-width="1" fill="none" fill-rule="evenodd">
        <g id="高速产品大屏备份" transform="translate(-109, -412)" fill="url(#linearGradient-1)" fill-rule="nonzero">
            <g id="编组-15" transform="translate(-2, -0)">
                <g id="编组-11" transform="translate(74, 147)">
                    <g id="LDW" transform="translate(20, 245)">
                        <path d="M26.5384615,20.2608696 L28.3931624,20.2608696 L22.5641026,44 L17,44 L26.5384615,20.2608696 Z M38.4615385,20.2608696 L36.6068376,20.2608696 L42.4358974,44 L48,44 L38.4615385,20.2608696 Z M32.0862133,20 L33.178744,20 C33.7550411,20 34.2222222,20.4671811 34.2222222,21.0434783 L34.2222222,22.0869565 C34.2222222,22.6632537 33.7550411,23.1304348 33.178744,23.1304348 L32.0862133,23.1304348 C31.5099162,23.1304348 31.042735,22.6632537 31.042735,22.0869565 L31.042735,21.0434783 C31.042735,20.4671811 31.5099162,20 32.0862133,20 Z M32.0862133,23.6521739 L33.178744,23.6521739 C33.7550411,23.6521739 34.2222222,24.119355 34.2222222,24.6956522 L34.2222222,28.3478261 C34.2222222,28.9241232 33.7550411,29.3913043 33.178744,29.3913043 L32.0862133,29.3913043 C31.5099162,29.3913043 31.042735,28.9241232 31.042735,28.3478261 L31.042735,24.6956522 C31.042735,24.119355 31.5099162,23.6521739 32.0862133,23.6521739 Z M32.0862133,29.9130435 L33.178744,29.9130435 C33.7550411,29.9130435 34.2222222,30.3802246 34.2222222,30.9565217 L34.2222222,35.6521739 C34.2222222,36.228471 33.7550411,36.6956522 33.178744,36.6956522 L32.0862133,36.6956522 C31.5099162,36.6956522 31.042735,36.228471 31.042735,35.6521739 L31.042735,30.9565217 C31.042735,30.3802246 31.5099162,29.9130435 32.0862133,29.9130435 Z M32.0862133,37.2173913 L33.178744,37.2173913 C33.7550411,37.2173913 34.2222222,37.6845724 34.2222222,38.2608696 L34.2222222,41.9130435 C34.2222222,42.4893406 33.7550411,42.9565217 33.178744,42.9565217 L32.0862133,42.9565217 C31.5099162,42.9565217 31.042735,42.4893406 31.042735,41.9130435 L31.042735,38.2608696 C31.042735,37.6845724 31.5099162,37.2173913 32.0862133,37.2173913 Z" id="形状结合"></path>
                    </g>
                </g>
            </g>
        </g>
    </g>
</svg>