<?xml version="1.0" encoding="UTF-8"?>
<svg width="381px" height="38px" viewBox="0 0 381 38" version="1.1" xmlns="http://www.w3.org/2000/svg" xmlns:xlink="http://www.w3.org/1999/xlink">
    <title>挚途高速产品介绍</title>
    <g id="大屏修改" stroke="none" stroke-width="1" fill="none" fill-rule="evenodd">
        <g id="高速产品大屏备份" transform="translate(-785, -35)" fill="#FFFFFF" fill-rule="nonzero">
            <g id="编组-15" transform="translate(-2, -0)">
                <g id="挚途高速产品介绍" transform="translate(787.2969, 35.2031)">
                    <path d="M10.0078125,6.234375 L13.2890625,6.234375 L13.2890625,2.05078125 L10.0078125,2.05078125 L10.0078125,0.73828125 L4.4296875,0.73828125 L4.4296875,2.05078125 L0.4921875,2.05078125 L0.4921875,6.234375 L4.4296875,6.234375 L4.4296875,7.875 L0.4921875,8.203125 L0.4921875,12.3867188 L4.4296875,12.0585938 L4.4296875,13.6992188 L0.65625,13.6992188 L0.65625,17.8007812 L10.0078125,17.8007812 L10.0078125,11.6484375 L13.2890625,11.4023438 L13.2890625,7.21875 L10.0078125,7.46484375 L10.0078125,6.234375 L10.0078125,6.234375 Z M23.0507812,15.0117188 L28.3828125,16.8164062 L28.3828125,12.140625 L25.59375,11.15625 L25.59375,6.64453125 L30.6796875,6.64453125 L29.6132812,17.4726562 L37.40625,17.4726562 L37.40625,12.46875 L35.2734375,12.46875 L36.5039062,2.05078125 L25.59375,2.05078125 L25.59375,0.73828125 L20.2617188,0.73828125 L20.2617188,2.05078125 L14.765625,2.05078125 L14.765625,6.64453125 L20.2617188,6.64453125 L20.2617188,9.3515625 L14.765625,7.546875 L14.765625,12.2226562 L18.046875,13.2890625 L12.46875,17.6367188 L19.9335938,17.6367188 L23.0507812,15.0117188 L23.0507812,15.0117188 Z M16.40625,23.7070312 L1.4765625,23.7070312 L1.4765625,27.3164062 L16.40625,27.3164062 L16.40625,28.4648438 L0,28.4648438 L0,32.2382812 L16.40625,32.2382812 L16.40625,33.3867188 L8.44921875,33.3867188 L8.44921875,36.5449219 L22.4765625,36.5449219 L22.4765625,32.2382812 L37.40625,32.2382812 L37.40625,28.4648438 L22.4765625,28.4648438 L22.4765625,27.3164062 L35.6015625,27.3164062 L35.6015625,23.7070312 L22.4765625,23.7070312 L22.4765625,22.3945312 L36.2578125,22.1484375 L36.2578125,18.375 L0.8203125,19.03125 L0.8203125,22.8046875 L16.40625,22.4765625 L16.40625,23.7070312 L16.40625,23.7070312 Z" id="形状"></path>
                    <path d="M64.978125,8.28515625 L73.4273437,5.66015625 L80.8101562,8.28515625 L64.978125,8.28515625 L64.978125,8.28515625 Z M83.9273437,9.43359375 L86.0601562,10.171875 L86.0601562,4.59375 L73.2632812,0.08203125 L59.728125,4.18359375 L59.728125,9.92578125 L62.2710937,9.10546875 L62.2710937,13.6992188 L70.0640625,13.6992188 L70.0640625,15.8320312 L59.6460937,15.8320312 L59.6460937,21.2460938 L70.0640625,21.2460938 L70.0640625,24.4453125 L68.0132812,24.4453125 L68.0132812,29.859375 L76.134375,29.859375 L76.134375,21.2460938 L86.1421875,21.2460938 L86.1421875,15.8320312 L76.134375,15.8320312 L76.134375,13.6992188 L83.9273437,13.6992188 L83.9273437,9.43359375 L83.9273437,9.43359375 Z M77.2007812,22.4765625 L80.1539062,29.53125 L86.3882812,29.53125 L83.2710937,22.4765625 L77.2007812,22.4765625 L77.2007812,22.4765625 Z M62.5171875,22.4765625 L59.071875,29.6953125 L65.5523437,29.6953125 L68.7515625,22.4765625 L62.5171875,22.4765625 L62.5171875,22.4765625 Z M86.7984375,36.5449219 L86.7984375,31.0898438 L60.4664062,31.0898438 L56.6109375,27.234375 L56.6109375,11.7304688 L48.3257812,11.7304688 L48.3257812,17.3085938 L50.540625,17.3085938 L50.540625,27.5625 L48.571875,29.2851562 L48.571875,37.2011719 L53.9859375,32.8125 L57.9234375,36.5449219 L86.7984375,36.5449219 L86.7984375,36.5449219 Z M57.759375,11.15625 L57.759375,4.4296875 L49.0640625,0 L49.0640625,6.80859375 L57.759375,11.15625 L57.759375,11.15625 Z" id="形状"></path>
                    <path d="M99.440625,8.203125 L99.440625,18.046875 L133.565625,18.046875 L133.565625,8.203125 L99.440625,8.203125 L99.440625,8.203125 Z M128.807813,31.9101562 L127.823438,31.9101562 L127.823438,36.5449219 L134.714063,36.5449219 L134.714063,19.359375 L98.45625,19.359375 L98.45625,36.5449219 L104.3625,36.5449219 L104.3625,24.0351562 L128.807813,24.0351562 L128.807813,31.9101562 L128.807813,31.9101562 Z M134.878125,6.890625 L134.878125,2.21484375 L119.948438,2.21484375 L119.292188,0.73828125 L112.565625,0.73828125 L113.221875,2.21484375 L98.2921875,2.21484375 L98.2921875,6.890625 L134.878125,6.890625 L134.878125,6.890625 Z M127.659375,12.3046875 L127.659375,13.9453125 L105.346875,13.9453125 L105.346875,12.3046875 L127.659375,12.3046875 L127.659375,12.3046875 Z M111.663281,29.203125 L121.096875,29.203125 L121.096875,30.515625 L111.663281,30.515625 L111.663281,29.203125 L111.663281,29.203125 Z M127.003125,25.265625 L105.757031,25.265625 L105.757031,34.4941406 L127.003125,34.4941406 L127.003125,25.265625 L127.003125,25.265625 Z" id="形状"></path>
                    <path d="M173.934375,30.0234375 L173.934375,21.7382812 L183.942187,21.7382812 L183.942187,8.77734375 L173.934375,8.77734375 L173.934375,7.46484375 L184.7625,7.46484375 L184.7625,2.05078125 L173.934375,2.05078125 L173.934375,0.73828125 L167.864062,0.73828125 L167.864062,2.05078125 L156.707812,2.05078125 L156.707812,7.46484375 L167.864062,7.46484375 L167.864062,8.77734375 L157.692187,8.77734375 L157.692187,21.7382812 L167.864062,21.7382812 L167.864062,30.0234375 L173.934375,30.0234375 L173.934375,30.0234375 Z M163.7625,14.1914062 L167.864062,14.1914062 L167.864062,16.3242188 L163.7625,16.3242188 L163.7625,14.1914062 L163.7625,14.1914062 Z M173.934375,14.1914062 L177.871875,14.1914062 L177.871875,16.3242188 L173.934375,16.3242188 L173.934375,14.1914062 L173.934375,14.1914062 Z M185.090625,29.203125 L181.317187,22.96875 L174.672656,22.96875 L178.364062,29.203125 L185.090625,29.203125 L185.090625,29.203125 Z M167.207812,22.96875 L160.645312,22.96875 L156.379687,29.203125 L163.188281,29.203125 L167.207812,22.96875 L167.207812,22.96875 Z M154.575,10.9921875 L154.575,4.4296875 L146.7,0.90234375 L146.7,7.3828125 L154.575,10.9921875 L154.575,10.9921875 Z M184.7625,36.3808594 L184.7625,31.0898438 L158.5125,31.0898438 L154.082812,27.5625 L154.082812,12.46875 L145.797656,12.46875 L145.797656,17.8828125 L148.0125,17.8828125 L148.0125,28.6289062 L145.879687,30.4335938 L145.879687,37.6933594 L151.539844,32.9765625 L155.8875,36.3808594 L184.7625,36.3808594 L184.7625,36.3808594 Z" id="形状"></path>
                    <path d="M210.119531,0.73828125 L211.103906,2.7890625 L196.830469,2.7890625 L196.830469,8.3671875 L231.857813,8.3671875 L231.857813,2.7890625 L218.076563,2.7890625 L217.092188,0.73828125 L210.119531,0.73828125 L210.119531,0.73828125 Z M219.225,13.5351562 L209.463281,13.5351562 L207.002344,9.59765625 L199.865625,9.59765625 L202.326563,13.5351562 L196.666406,13.5351562 L196.666406,27.1523438 L194.369531,36.5449219 L200.357813,36.5449219 L202.736719,27.0703125 L202.736719,19.1132812 L232.924219,19.1132812 L232.924219,13.5351562 L226.197656,13.5351562 L228.658594,9.59765625 L221.767969,9.59765625 L219.225,13.5351562 L219.225,13.5351562 Z" id="形状"></path>
                    <path d="M280.183594,1.39453125 L246.222656,1.39453125 L246.222656,17.6367188 L280.183594,17.6367188 L280.183594,1.39453125 L280.183594,1.39453125 Z M252.292969,6.97265625 L274.113281,6.97265625 L274.113281,12.0585938 L252.292969,12.0585938 L252.292969,6.97265625 L252.292969,6.97265625 Z M244.664062,19.2773438 L244.664062,36.5449219 L262.21875,36.5449219 L262.21875,19.2773438 L244.664062,19.2773438 L244.664062,19.2773438 Z M250.734375,31.0898438 L250.734375,24.8554688 L256.148438,24.8554688 L256.148438,31.0898438 L250.734375,31.0898438 L250.734375,31.0898438 Z M281.742188,19.2773438 L264.351562,19.2773438 L264.351562,36.5449219 L281.742188,36.5449219 L281.742188,19.2773438 L281.742188,19.2773438 Z M270.421875,31.0898438 L270.421875,24.8554688 L275.671875,24.8554688 L275.671875,31.0898438 L270.421875,31.0898438 L270.421875,31.0898438 Z" id="形状"></path>
                    <path d="M312.103125,6.5625 L330.232031,16.40625 L330.232031,10.5 L312.103125,0.4921875 L294.302344,10.3359375 L294.302344,16.2421875 L312.103125,6.5625 L312.103125,6.5625 Z M301.275,36.5449219 L304.228125,27.7265625 L304.228125,16.2421875 L298.321875,16.2421875 L298.321875,26.90625 L295.286719,36.5449219 L301.275,36.5449219 L301.275,36.5449219 Z M325.884375,36.5449219 L325.884375,16.2421875 L319.978125,16.2421875 L319.978125,36.5449219 L325.884375,36.5449219 L325.884375,36.5449219 Z" id="形状"></path>
                    <path d="M349.026562,10.2539062 L352.389844,0.73828125 L346.2375,0.73828125 L341.233594,15.8320313 L346.975781,15.8320313 L341.725781,24.5273438 L356.983594,24.5273438 L356.983594,18.9492188 L352.14375,18.9492188 L358.296094,7.46484375 L351.815625,7.46484375 L350.257031,10.2539062 L349.026562,10.2539062 L349.026562,10.2539062 Z M356.983594,32.2382812 L356.983594,26.1679688 L341.561719,30.515625 L341.561719,36.2988281 L356.983594,32.2382812 L356.983594,32.2382812 Z M373.882031,7.30078125 L373.635937,12.3046875 L371.503125,12.3046875 L371.503125,17.8828125 L379.460156,17.8828125 L379.952344,1.72265625 L359.034375,1.72265625 L359.034375,7.30078125 L363.217969,7.30078125 L358.132031,18.2109375 L364.284375,18.2109375 L369.370312,7.30078125 L373.882031,7.30078125 L373.882031,7.30078125 Z M379.542187,36.2988281 L379.542187,19.4414062 L359.034375,19.4414062 L359.034375,36.2988281 L379.542187,36.2988281 L379.542187,36.2988281 Z M373.471875,25.0195312 L373.471875,30.7617188 L365.104687,30.7617188 L365.104687,25.0195312 L373.471875,25.0195312 L373.471875,25.0195312 Z" id="形状"></path>
                </g>
            </g>
        </g>
    </g>
</svg>