<?xml version="1.0" encoding="UTF-8"?>
<svg width="18px" height="18px" viewBox="0 0 18 18" version="1.1" xmlns="http://www.w3.org/2000/svg" xmlns:xlink="http://www.w3.org/1999/xlink">
    <title>晴天</title>
    <g id="大屏修改" stroke="none" stroke-width="1" fill="none" fill-rule="evenodd">
        <g id="高速产品大屏备份" transform="translate(-1455, -74)" fill="#4F8CEA" fill-rule="nonzero">
            <g id="编组-15" transform="translate(-2, -0)">
                <g id="编组-13" transform="translate(1424, 64)">
                    <g id="编组-33" transform="translate(0, 6)">
                        <g id="编组-7" transform="translate(33, 0)">
                            <path d="M8.8902439,18.4878049 C9.25609756,18.4878049 9.43902439,18.6781255 9.43902439,19.0587668 L9.43902439,21.4290381 C9.43902439,21.7716152 9.29085366,21.9600327 8.9945122,21.9942904 L8.8902439,22 C8.52439024,22 8.34146341,21.8096794 8.34146341,21.4290381 L8.34146341,19.0587668 C8.34146341,18.7161897 8.48963415,18.5277722 8.78597561,18.4935145 L8.8902439,18.4878049 Z M4.98896684,16.8593991 L5.06877422,16.9312258 C5.33479884,17.1972504 5.33479884,17.463275 5.06877422,17.7292996 L3.41222643,19.3858474 C3.17280428,19.6252695 2.93338213,19.6492118 2.69395999,19.457674 L2.61415261,19.3858474 C2.34812799,19.1198228 2.34812799,18.8537982 2.61415261,18.5877736 L4.2707004,16.9312258 C4.51012255,16.6918036 4.7495447,16.6678614 4.98896684,16.8593991 Z M13.7292996,16.9312258 L15.3858474,18.5877736 C15.6252695,18.8271957 15.6492118,19.0666179 15.457674,19.30604 L15.3858474,19.3858474 C15.1198228,19.651872 14.8537982,19.651872 14.5877736,19.3858474 L12.9312258,17.7292996 C12.6918036,17.4898775 12.6678614,17.2504553 12.8593991,17.0110332 L12.9312258,16.9312258 C13.1972504,16.6652012 13.463275,16.6652012 13.7292996,16.9312258 Z M9,8.3902439 C11.545898,8.3902439 13.6097561,10.454102 13.6097561,13 C13.6097561,15.545898 11.545898,17.6097561 9,17.6097561 C6.45410201,17.6097561 4.3902439,15.545898 4.3902439,13 C4.3902439,10.454102 6.45410201,8.3902439 9,8.3902439 Z M17.4290381,12.5609756 C17.7716152,12.5609756 17.9600327,12.7091463 17.9942904,13.0054878 L18,13.1097561 C18,13.4756098 17.8096794,13.6585366 17.4290381,13.6585366 L15.0587668,13.6585366 C14.7161897,13.6585366 14.5277722,13.5103659 14.4935145,13.2140244 L14.4878049,13.1097561 C14.4878049,12.7439024 14.6781255,12.5609756 15.0587668,12.5609756 L17.4290381,12.5609756 Z M2.94123319,12.3414634 C3.28381035,12.3414634 3.47222779,12.4896341 3.5064855,12.7859756 L3.51219512,12.8902439 C3.51219512,13.2560976 3.32187448,13.4390244 2.94123319,13.4390244 L0.570961936,13.4390244 C0.228384774,13.4390244 0.0399673355,13.2908537 0.00570961936,12.9945122 L0,12.8902439 C0,12.5243902 0.190320645,12.3414634 0.570961936,12.3414634 L2.94123319,12.3414634 Z M3.41222644,6.61415261 L5.06877422,8.2707004 C5.30819637,8.51012255 5.33213859,8.7495447 5.14060087,8.98896684 L5.06877422,9.06877422 C4.80274961,9.33479884 4.536725,9.33479884 4.27070039,9.06877422 L2.61415261,7.41222645 C2.37473045,7.1728043 2.35078824,6.93338214 2.54232596,6.69395999 L2.61415261,6.61415261 C2.88017722,6.34812799 3.14620183,6.34812799 3.41222644,6.61415261 Z M15.30604,6.54232596 L15.3858474,6.61415261 C15.651872,6.88017722 15.651872,7.14620183 15.3858474,7.41222643 L13.7292996,9.06877422 C13.4898775,9.30819637 13.2504553,9.33213859 13.0110332,9.14060087 L12.9312258,9.06877422 C12.6652012,8.80274961 12.6652012,8.536725 12.9312258,8.2707004 L14.5877736,6.61415261 C14.8271957,6.37473045 15.0666179,6.35078824 15.30604,6.54232596 Z M8.89024391,4 C9.25609758,4 9.43902439,4.19032065 9.43902439,4.57096194 L9.43902439,6.94123319 C9.43902439,7.28381035 9.29085366,7.47222779 8.9945122,7.5064855 L8.89024391,7.51219512 C8.52439025,7.51219512 8.34146341,7.32187448 8.34146341,6.94123319 L8.34146341,4.57096194 C8.34146341,4.22838477 8.48963415,4.03996734 8.78597562,4.00570962 L8.89024391,4 Z" id="晴天"></path>
                        </g>
                    </g>
                </g>
            </g>
        </g>
    </g>
</svg>