<?xml version="1.0" encoding="utf-8"?>
<!-- Generator: Adobe Illustrator 22.0.0, SVG Export Plug-In . SVG Version: 6.00 Build 0)  -->
<svg version="1.1" id="图层_1" xmlns="http://www.w3.org/2000/svg" xmlns:xlink="http://www.w3.org/1999/xlink" x="0px" y="0px"
	 viewBox="0 0 28 28" style="enable-background:new 0 0 28 28;" xml:space="preserve">
<style type="text/css">
	.st0{fill:#D0DCFF;fill-opacity:0.44;}
</style>
<title>编组 31</title>
<g id="总">
	<g id="画板" transform="translate(-873.000000, -329.000000)">
		<g id="编组-72" transform="translate(-813.000000, -609.000000)">
			<g id="编组-66" transform="translate(907.000000, 708.000000)">
				<g id="编组-33" transform="translate(1.000000, 100.000000)">
					<g id="表格-复杂管理-2" transform="translate(224.000000, 116.000000)">
						<g id="卡片1" transform="translate(318.000000, 12.000000)">
							<g id="编组-31" transform="translate(236.000000, 2.000000)">
								<path id="形状结合" class="st0" d="M22.8,1C25.7,1,27,2.3,27,5.2l0,0v17.6c0,2.9-1.3,4.2-4.2,4.2l0,0H5.2
									C2.3,27,1,25.7,1,22.8l0,0V5.2C1,2.3,2.3,1,5.2,1l0,0H22.8z M16.2,15.5h-3.6c-3.3,0-5.9,2.7-5.9,6.1c0,0.3,0.2,0.5,0.5,0.5
									h14.4c0.3,0,0.5-0.2,0.5-0.5C22.1,18.2,19.5,15.5,16.2,15.5z M14.4,6.7c-2.1,0-3.9,1.8-3.9,4s1.7,4,3.9,4s3.9-1.8,3.9-4
									S16.5,6.7,14.4,6.7z"/>
							</g>
						</g>
					</g>
				</g>
			</g>
		</g>
	</g>
</g>
</svg>
