<?xml version="1.0" encoding="utf-8"?>
<!-- Generator: Adobe Illustrator 22.0.0, SVG Export Plug-In . SVG Version: 6.00 Build 0)  -->
<svg version="1.1" id="图层_1" xmlns="http://www.w3.org/2000/svg" xmlns:xlink="http://www.w3.org/1999/xlink" x="0px" y="0px"
	 viewBox="0 0 28 28" style="enable-background:new 0 0 28 28;" xml:space="preserve">
<style type="text/css">
	.st0{fill:#D0DCFF;fill-opacity:0.44;}
</style>
<title>编组 31</title>
<g id="总">
	<g id="画板" transform="translate(-1167.000000, -330.000000)">
		<g id="编组-72" transform="translate(-813.000000, -609.000000)">
			<g id="编组-66" transform="translate(907.000000, 708.000000)">
				<g id="编组-33" transform="translate(1.000000, 100.000000)">
					<g id="表格-复杂管理-2" transform="translate(224.000000, 116.000000)">
						<g id="卡片1" transform="translate(612.000000, 12.000000)">
							<g id="编组-31" transform="translate(236.000000, 3.000000)">
								<path id="形状" class="st0" d="M27.3,8.6h-2.6c-0.1,0-0.2,0-0.3,0.1l-1.4-4.4C22.4,3,21.2,2.1,19.8,2H8.1
									C6.7,2.1,5.5,3,5,4.2L3.6,8.6c-0.1,0-0.1,0-0.2,0H0.7C0.3,8.6,0,8.9,0,9.3v0.6c0,0.4,0.3,0.7,0.7,0.7l1,0.2
									c-0.3,0.7-0.5,1.4-0.5,2.2l-0.4,4.3c0,0.1,0,0.2,0,0.4c0,0.1,0,0.2,0,0.2V23c0,0.3,0.1,0.7,0.4,0.9c0.2,0.2,0.6,0.4,0.9,0.4
									h2c0.4,0,0.7-0.1,0.9-0.4c0.2-0.2,0.4-0.6,0.4-0.9v-1.6h7.4c0-4.4,3.6-8.1,8.1-8.1c2.4,0,4.6,1.1,6.1,2.9L26.8,13
									c0-0.7-0.2-1.5-0.5-2.2l1-0.2c0.4,0,0.7-0.3,0.7-0.7V9.3C28,8.9,27.7,8.6,27.3,8.6L27.3,8.6L27.3,8.6z M6.4,18.9
									c-0.8,0-1.6-0.5-1.9-1.2c-0.3-0.7-0.2-1.6,0.4-2.2s1.4-0.8,2.2-0.4c0.8,0.3,1.3,1,1.2,1.9C8.4,18,7.5,18.9,6.4,18.9
									L6.4,18.9z M20.9,10.7H7.1c-0.5,0-1-0.3-1.3-0.7s-0.4-1-0.2-1.5l1.1-3.3c0.2-0.7,0.8-1.1,1.5-1.1h11.7
									c0.7,0,1.3,0.5,1.5,1.1l1.1,3.3c0.2,0.5,0.1,1-0.2,1.5C21.9,10.5,21.4,10.7,20.9,10.7L20.9,10.7L20.9,10.7z M20.9,14.9
									c-2.7-0.1-5.1,1.5-6.2,4s-0.5,5.3,1.3,7.2s4.7,2.5,7.2,1.5c2.5-1,4.1-3.4,4.1-6.1c0-1.7-0.7-3.4-1.9-4.6
									C24.3,15.6,22.7,14.9,20.9,14.9L20.9,14.9L20.9,14.9z M24.2,22.1c0,0.1-0.1,0.3-0.2,0.3l-1.7,1.3c-0.1,0.1-0.2,0.2-0.2,0.4
									l0.1,0.8c0,0.3-0.4,0.5-0.4,0.5h-2c-0.1,0-0.2-0.1-0.3-0.1c-0.1-0.1-0.1-0.2-0.1-0.3l0.1-0.9c0-0.1,0-0.3-0.2-0.4l-1.7-1.3
									c-0.1-0.1-0.2-0.2-0.2-0.3v-2.8c0-0.1,0-0.2,0.1-0.3l1.5-1.6c0.1-0.1,0.2-0.1,0.3-0.1h0.3c0.1,0,0.2,0,0.3,0.1
									c0.1,0.1,0.1,0.2,0.1,0.3v2.3c0,0.1,0,0.2,0.1,0.3s0.2,0.1,0.3,0.1h0.3c0.1,0,0.2,0,0.3-0.1c0.1-0.1,0.1-0.2,0.1-0.3v-2.3
									c0-0.1,0-0.2,0.1-0.3c0.1-0.1,0.2-0.1,0.3-0.1h0.3c0.1,0,0.2,0,0.3,0.1l1.5,1.6c0.1,0.1,0.1,0.2,0.1,0.3L24.2,22.1
									L24.2,22.1z"/>
							</g>
						</g>
					</g>
				</g>
			</g>
		</g>
	</g>
</g>
</svg>
