<?xml version="1.0" encoding="utf-8"?>
<!-- Generator: Adobe Illustrator 22.0.0, SVG Export Plug-In . SVG Version: 6.00 Build 0)  -->
<svg version="1.1" id="图层_1" xmlns="http://www.w3.org/2000/svg" xmlns:xlink="http://www.w3.org/1999/xlink" x="0px" y="0px"
	 viewBox="0 0 28 26" style="enable-background:new 0 0 28 26;" xml:space="preserve">
<style type="text/css">
	.st0{opacity:0.3323;}
	.st1{fill:#D0DCFF;}
</style>
<title>形状</title>
<g id="总" class="st0">
	<g id="画板" transform="translate(-579.000000, -331.000000)">
		<g id="编组-72" transform="translate(-813.000000, -609.000000)">
			<g id="编组-66" transform="translate(907.000000, 708.000000)">
				<g id="编组-33" transform="translate(1.000000, 100.000000)">
					<g id="表格-复杂管理-2" transform="translate(224.000000, 116.000000)">
						<g id="编组-89" transform="translate(24.000000, 12.000000)">
							<path id="形状" class="st1" d="M264,10.3c0-1.1-0.6-2.2-1.6-2.8l-5.4-3.3c-0.2-0.1-0.5-0.2-0.8,0c-0.2,0.1-0.4,0.4-0.4,0.6
								V5c0,0.5,0.3,1,0.7,1.3l0.4,0.2c0.7,0.4,1.1,1.1,1.1,1.9v2.7c0,1.4,1.2,2.6,2.7,2.6c0.4,0,0.8,0.3,0.8,0.7v12
								c0,0.7-0.6,1.3-1.4,1.3h-0.9c-0.2,0-0.4-0.1-0.5-0.2c-0.1-0.1-0.2-0.3-0.2-0.5v-8c0-1.6-1.4-2.9-3.1-2.9h-0.6
								c-0.3,0-0.6-0.1-0.8-0.3c-0.2-0.2-0.3-0.5-0.3-0.7V6.3c0-1.3-1.1-2.3-2.4-2.3h-12.8c-1.3,0-2.4,1-2.4,2.3v22.6
								c0,0.6,0.5,1.1,1.1,1.1h15.5c0.6,0,1.1-0.5,1.1-1.1v-9.5c0-0.6,0.5-1,1.1-1h0.1c0.6,0,1.1,0.5,1.1,1v8.9
								c0,0.9,0.7,1.6,1.7,1.6l4.9,0c0.8,0,1.5-0.6,1.5-1.4L264,10.3z M247.8,19h-7c-0.4,0-0.7-0.3-0.7-0.6v-1.7
								c0-0.3,0.3-0.6,0.7-0.6h7c0.4,0,0.7,0.3,0.7,0.6v1.7C248.4,18.7,248.1,19,247.8,19L247.8,19z M250.5,12.4
								c0,0.3-0.3,0.6-0.7,0.6h-11.1c-0.4,0-0.7-0.3-0.7-0.6V7.6c0-0.3,0.3-0.6,0.7-0.6h11.1c0.4,0,0.7,0.3,0.7,0.6V12.4z"/>
						</g>
					</g>
				</g>
			</g>
		</g>
	</g>
</g>
</svg>
