<?xml version="1.0" encoding="utf-8"?>
<!-- Generator: Adobe Illustrator 22.0.0, SVG Export Plug-In . SVG Version: 6.00 Build 0)  -->
<svg version="1.1" id="图层_1" xmlns="http://www.w3.org/2000/svg" xmlns:xlink="http://www.w3.org/1999/xlink" x="0px" y="0px"
	 viewBox="0 0 25 55" style="enable-background:new 0 0 25 55;" xml:space="preserve">
<style type="text/css">
	.st0{fill:#434448;}
	.st1{fill:#EFF3F6;}
	.st2{fill:#E9EEF0;}
	.st3{fill:#C0BFBF;}
	.st4{fill:#FFB608;}
	.st5{fill:#202016;}
	.st6{fill:#5C5D5D;}
	.st7{fill:#C7C8C7;}
	.st8{fill:#383939;}
	.st9{fill:url(#路径_13_);}
	.st10{fill:#F8F7F5;}
	.st11{fill:#FFB608;fill-opacity:0.3475;}
	.st12{fill:#FFE38A;}
	.st13{fill:#3B3C3C;}
	.st14{fill:#4C4E4F;}
</style>
<title>编组</title>
<g id="总">
	<g id="画板" transform="translate(-2189.000000, -4152.000000)">
		<g id="编组-72" transform="translate(-813.000000, -609.000000)">
			<g id="编组-50" transform="translate(2432.000000, 4288.000000)">
				<g id="编组-32备份-2" transform="translate(208.000000, 1.000000)">
					<g id="截屏2023-11-08-上午9.39.37" transform="translate(0.000000, 45.000000)">
						<g id="编组-48" transform="translate(324.000000, 382.000000)">
							
								<g id="编组" transform="translate(50.500000, 72.500000) rotate(-90.000000) translate(-50.500000, -72.500000) translate(23.000000, 60.000000)">
								<polygon id="路径" class="st0" points="37.2,12.5 37.2,12.5 37.2,2.5 34.6,2.5 34.6,22.5 37.2,22.5 37.2,12.5 								"/>
								<path id="路径_1_" class="st1" d="M47.4,23.3l0.7-0.7l0.5,0c0,0-0.2,0.5,0.5,0.5h0.7c0,0,1.5-0.1,2.5-1.8
									c1-1.7,2-3.2,2.2-8.8l0-0.1c-0.2-5.6-1.2-7.1-2.2-8.8c-1-1.7-2.5-1.8-2.5-1.8h-0.7c-0.7,0-0.5,0.5-0.5,0.5l-0.5,0l-0.7-0.7
									h-6.3l-0.9,0.7c0,0-2.4,0-3.1,0c-0.8,0-0.6,1.2-0.6,1.2v17.9c0,0-0.1,1.2,0.6,1.2c0.8,0,3.1,0,3.1,0l0.9,0.7L47.4,23.3
									L47.4,23.3z"/>
								
									<rect id="矩形" x="34" y="7" transform="matrix(-2.535182e-06 -1 1 -2.535182e-06 30.0001 55)" class="st2" width="17" height="11"/>
								<path id="路径_2_" class="st3" d="M44.7,4.4c0,0-7-0.1-7.1,0c-0.2,0.1-0.3,0.3-0.4,0.4c0,0.1-0.1-0.5,0.8-0.6
									c0.9-0.1,7.8,0,7.8,0L44.7,4.4L44.7,4.4z"/>
								<path id="路径_3_" class="st4" d="M52.6,21.3c1.1-1.7,2.1-3.2,2.4-8.8h0l0,0l0,0h0c-0.2-5.6-1.3-7.1-2.4-8.8
									c-1.1-1.7-2.7-1.8-2.7-1.8h-3.5c-0.4,0-0.5,0.2-0.5,0.3v0.1c0,0,0,0.1,0,0.1h0v0c0,0,0,0,0.1,0h3.5c0,0,1.6,0.1,2.7,1.8
									c1.1,1.6,2.1,3.1,2.3,8.3c-0.3,5.2-1.3,6.7-2.3,8.3c-1.1,1.7-2.7,1.8-2.7,1.8H46c0,0,0,0-0.1,0v0h0c0,0,0,0,0,0.1v0.1
									c0,0.1,0.1,0.3,0.5,0.3h3.5C49.9,23.2,51.5,23,52.6,21.3L52.6,21.3z"/>
								<path id="路径_4_" class="st5" d="M49.7,18.2c0.4-2,0.5-5.1,0.5-5.6c0,0,0-3.4-0.5-5.7c-0.4-1.2-0.7-2-1.3-2.4
									C47.8,4,47.5,3.8,45.9,4c-1.6,0.2-3.4,0.5-3.4,0.5s-0.1,7.5,0,8.1c0,0.5-0.1,8-0.1,8s1.8,0.3,3.4,0.5c1.6,0.2,1.9,0,2.5-0.5
									C48.9,20.1,49.3,19.4,49.7,18.2z"/>
								<path id="路径_5_" class="st6" d="M44.1,22.2h-6.5c0,0-0.8-0.1-0.8-0.9s8.1,0.1,8.1,0.1l0.1,0.8L44.1,22.2z"/>
								<path id="形状" class="st7" d="M47.4,21.7l-0.7,0.8c0,0-1.2,2.4-1.3,2.5c-0.2,0.1-0.6,0-0.6,0l0.6-2.2
									c0,0-0.1-0.4-0.4-0.5c-0.3-0.2-0.2-0.8-0.2-0.8L47.4,21.7L47.4,21.7z M39.6,22.6v0.2h-1.8v-0.2H39.6z"/>
								<path id="路径_6_" class="st3" d="M44.7,20.6c0,0-7,0.1-7.1,0c-0.2-0.1-0.3-0.3-0.4-0.4c0-0.1-0.1,0.5,0.8,0.6
									c0.9,0.1,7.8,0,7.8,0L44.7,20.6L44.7,20.6z"/>
								<path id="路径_7_" class="st8" d="M49.5,16.3c0.1-0.9,0.2-3.8,0.2-3.8v-0.1c0,0,0-2.9-0.2-3.8c-0.2-1.8-0.6-3-0.8-3.5
									c-0.3-0.5-0.8-1.3-2.2-1.1c-1.4,0.1-3.8,0.5-3.8,0.5s0,1,0,2.3c0,1.3,0.2,5.2,0.2,5.6c0,0.4-0.2,4.3-0.2,5.6
									c0,1.3-0.3,2.3-0.3,2.3s2.7,0.3,4.1,0.5c1.4,0.1,1.9-0.7,2.2-1.1C49,19.3,49.4,18.1,49.5,16.3z"/>
								<path id="路径_8_" class="st4" d="M0.9,24h5.4c0.5,0,0.4-0.3,0.4-0.3v-0.3l0-10.9l0-10.9V1.3c0,0,0.1-0.3-0.4-0.3H0.9
									C0.9,1,0,0.9,0,2v10.5h0V23C0,24.1,0.9,24,0.9,24L0.9,24z"/>
								
									<linearGradient id="路径_13_" gradientUnits="userSpaceOnUse" x1="20.2339" y1="6.6298" x2="21.2339" y2="6.6298" gradientTransform="matrix(0 22.552 33.3457 0 -219.714 -443.7936)">
									<stop  offset="0" style="stop-color:#FFB608"/>
									<stop  offset="1" style="stop-color:#FFDC13"/>
								</linearGradient>
								<path id="路径_9_" class="st9" d="M34.7,23.1V2c0-0.4-0.3-0.7-0.6-0.7H2C1.6,1.2,1.4,1.6,1.4,2v21.1
									c0,0.4,0.3,0.7,0.6,0.7h32.1C34.4,23.8,34.7,23.5,34.7,23.1L34.7,23.1z"/>
								<path id="形状结合" class="st10" d="M22.1,23.8l-0.8,0.7h-6.9l-0.9-0.7H22.1z M34.2,22.7c0,0.4-0.1,0.6-0.3,0.6H2.3
									C2.1,23.3,2,23,2,22.7V2.3c0-0.3,0.1-0.6,0.3-0.6l0,0H34c0.1,0,0.3,0.3,0.3,0.6l0,0V22.7z M21.3,0.7l0.8,0.6h-8.6l0.9-0.6
									L21.3,0.7z"/>
								<path id="形状_1_" class="st11" d="M3.3,4.1C3.1,4.1,3,4,3,3.8c0-0.2,0.1-0.3,0.3-0.3h29.9c0.2,0,0.3,0.1,0.3,0.3
									c0,0.2-0.1,0.3-0.3,0.3H3.3z M3.3,5.5C3.1,5.5,3,5.4,3,5.3C3,5.1,3.1,5,3.3,5h29.9c0.2,0,0.3,0.1,0.3,0.3
									c0,0.2-0.1,0.3-0.3,0.3H3.3z M3.3,7.1C3.1,7.1,3,7,3,6.8c0-0.2,0.1-0.3,0.3-0.3h29.9c0.2,0,0.3,0.1,0.3,0.3
									c0,0.2-0.1,0.3-0.3,0.3H3.3z M3.3,8.5C3.1,8.5,3,8.4,3,8.2c0-0.2,0.1-0.3,0.3-0.3h29.9c0.2,0,0.3,0.1,0.3,0.3
									c0,0.2-0.1,0.3-0.3,0.3H3.3z M3.3,10.2C3.1,10.2,3,10.1,3,9.9c0-0.2,0.1-0.3,0.3-0.3h29.9c0.2,0,0.3,0.1,0.3,0.3
									c0,0.2-0.1,0.3-0.3,0.3L3.3,10.2L3.3,10.2z M3.3,11.7c-0.2,0-0.3-0.1-0.3-0.3c0-0.2,0.1-0.3,0.3-0.3h29.9
									c0.2,0,0.3,0.1,0.3,0.3c0,0.2-0.1,0.3-0.3,0.3H3.3z M3.3,21.2c-0.2,0-0.3,0.1-0.3,0.3c0,0.2,0.1,0.3,0.3,0.3h29.9
									c0.2,0,0.3-0.1,0.3-0.3s-0.1-0.3-0.3-0.3H3.3z M3.3,19.3c-0.2,0-0.3,0.1-0.3,0.3c0,0.2,0.1,0.3,0.3,0.3h29.9
									c0.2,0,0.3-0.1,0.3-0.3c0-0.2-0.1-0.3-0.3-0.3H3.3z M3.3,17.7C3.1,17.7,3,17.9,3,18c0,0.2,0.1,0.3,0.3,0.3h29.9
									c0.2,0,0.3-0.1,0.3-0.3c0-0.2-0.1-0.3-0.3-0.3H3.3z M3.3,16C3.1,16,3,16.2,3,16.3c0,0.2,0.1,0.3,0.3,0.3h29.9
									c0.2,0,0.3-0.1,0.3-0.3c0-0.2-0.1-0.3-0.3-0.3H3.3z M3.3,14.2c-0.2,0-0.3,0.1-0.3,0.3c0,0.2,0.1,0.3,0.3,0.3h29.9
									c0.2,0,0.3-0.1,0.3-0.3c0-0.2-0.1-0.3-0.3-0.3H3.3z M3.3,12.7C3.1,12.7,3,12.8,3,13s0.1,0.3,0.3,0.3h29.9
									c0.2,0,0.3-0.1,0.3-0.3s-0.1-0.3-0.3-0.3H3.3z"/>
								<polygon id="路径_10_" class="st12" points="2.5,12.5 2.5,12.6 2,12.6 2,12.5 								"/>
								<path id="路径_11_" class="st13" d="M44.1,2.6h-6.4c0,0-0.8,0.3-0.8,1.1c0,0.8,7-0.1,7-0.1c1.1-0.5,1.6-0.7,1.6-0.8
									C45.6,2.6,45.1,2.6,44.1,2.6z"/>
								<path id="形状_2_" class="st7" d="M47.4,3.3l-0.7-0.8c0,0-1.2-2.4-1.3-2.5c-0.2-0.1-0.6,0-0.6,0l0.6,2.2
									c0,0-0.1,0.4-0.4,0.5c-0.3,0.2-0.2,0.8-0.2,0.8L47.4,3.3z M39.6,2.2v0.2h-1.8V2.2H39.6z"/>
								<path id="路径_12_" class="st14" d="M48,20.2c0.2-0.2,0.3-0.3,0.4-0.5c0.3-0.5,0.8-1.6,1-3.5c0.2-0.9,0.2-3.8,0.2-3.8
									v-0.1c0,0-0.1-2.9-0.2-3.8c-0.2-1.8-0.7-3-1-3.5c-0.3-0.5-1-1.3-2.7-1.1c-0.9,0.1-2.2,0.2-3.2,0.3
									C47.7,12.7,48.1,17.9,48,20.2L48,20.2z"/>
							</g>
						</g>
					</g>
				</g>
			</g>
		</g>
	</g>
</g>
</svg>
