<?xml version="1.0" encoding="UTF-8"?>
<svg width="22px" height="22px" viewBox="0 0 22 22" version="1.1" xmlns="http://www.w3.org/2000/svg" xmlns:xlink="http://www.w3.org/1999/xlink">
    <title>形状</title>
    <defs>
        <linearGradient x1="50%" y1="0%" x2="50%" y2="100%" id="linearGradient-1">
            <stop stop-color="#96BCFF" offset="0%"></stop>
            <stop stop-color="#81A4F2" offset="48.4620617%"></stop>
            <stop stop-color="#6677EF" offset="100%"></stop>
        </linearGradient>
    </defs>
    <g id="页面-2" stroke="none" stroke-width="1" fill="none" fill-rule="evenodd">
        <g id="画板" transform="translate(-4162.000000, -736.000000)" fill="url(#linearGradient-1)" fill-rule="nonzero">
            <g id="编组-66" transform="translate(3310.000000, 162.000000)">
                <g id="编组-47" transform="translate(224.000000, 116.000000)">
                    <g id="编组-55" transform="translate(604.000000, 433.000000)">
                        <path d="M35,25 C28.9248678,25 24,29.9248678 24,36 C24,42.0751322 28.9248678,47 35,47 C41.0751322,47 46,42.0751322 46,36 C46,33.0826186 44.8410748,30.2847256 42.7781746,28.2218254 C40.7152744,26.1589252 37.9173814,25 35,25 Z M41.0221122,36 C41.0226279,36.1870445 40.9171523,36.3582617 40.7498305,36.4418644 L32.071017,40.8027119 C31.9979112,40.8116208 31.9267496,40.8324025 31.860339,40.8642373 C31.8496963,40.8720167 31.8376766,40.8777103 31.8249152,40.881017 C31.8162561,40.8798171 31.8074728,40.8798171 31.7988136,40.881017 L31.6347458,40.881017 C31.591479,40.8784382 31.5490928,40.8676835 31.5098305,40.849322 L31.5247458,40.849322 C31.5083394,40.8463696 31.4929466,40.8393146 31.48,40.8288136 L31.4520339,40.8120339 L31.4315254,40.8120339 L31.4855932,40.8362712 C31.4542407,40.8268509 31.425515,40.8102538 31.4016949,40.7877966 L31.4464407,40.8344068 C31.4266362,40.8189511 31.4085138,40.8014535 31.3923729,40.7822034 C31.3789855,40.7694336 31.3665246,40.7557266 31.3550848,40.7411864 L31.3420339,40.7262712 L31.328983,40.7076271 L31.3383051,40.7076271 C31.3241932,40.6891021 31.3111222,40.6698067 31.2991525,40.6498305 L31.3401695,40.7020339 C31.3059536,40.6656983 31.2798922,40.6224745 31.2637288,40.5752542 L31.2749152,40.6591525 C31.2729798,40.6159464 31.2648165,40.5732461 31.250678,40.5323729 C31.239616,40.4935615 31.2339694,40.4534078 31.2338983,40.4130509 L31.2338983,40.3720339 C31.2328001,40.3590062 31.2328001,40.3459091 31.2338983,40.3328814 L31.2338983,40.2154237 L31.2338983,40.248983 C31.2387357,40.221794 31.2488714,40.1958212 31.2637288,40.1725424 L33.9130509,36 L31.3028814,31.8740678 L31.3028814,31.8833898 C31.2606911,31.8200676 31.2332911,31.748063 31.2226795,31.6727119 L31.2226795,31.5944068 C31.2221185,31.5468602 31.2296859,31.4995641 31.2450848,31.4545763 L31.2450848,31.5030509 C31.249963,31.4460367 31.2685092,31.3910378 31.2991525,31.3427119 L31.2991525,31.3725424 C31.3026875,31.3537098 31.3103259,31.3358867 31.3215254,31.320339 L31.3327119,31.3035593 L31.3327119,31.279322 C31.3347041,31.2737347 31.3378846,31.268646 31.3420339,31.2644068 L31.3532203,31.2532203 L31.3625424,31.2438983 C31.3876083,31.2221138 31.4151407,31.2033417 31.4445763,31.1879661 L31.4576271,31.1711864 C31.4995718,31.1405428 31.5480909,31.1201138 31.599322,31.1115132 L31.6981356,31.1115132 C31.7673897,31.1110077 31.8357721,31.1269849 31.8976271,31.1581356 L40.7516949,35.550678 C40.9204122,35.6363297 41.0253938,35.8108164 41.0221122,36 L41.0221122,36 Z" id="形状"></path>
                    </g>
                </g>
            </g>
        </g>
    </g>
</svg>