<?xml version="1.0" encoding="utf-8"?>
<!-- Generator: Adobe Illustrator 22.0.0, SVG Export Plug-In . SVG Version: 6.00 Build 0)  -->
<svg version="1.1" id="图层_1" xmlns="http://www.w3.org/2000/svg" xmlns:xlink="http://www.w3.org/1999/xlink" x="0px" y="0px"
	 viewBox="0 0 13 14" style="enable-background:new 0 0 13 14;" xml:space="preserve">
<style type="text/css">
	.st0{fill:#B0B1B4;}
</style>
<title>形状</title>
<g id="总">
	<g id="画板" transform="translate(-112.000000, -418.000000)">
		<g id="编组-72" transform="translate(-813.000000, -609.000000)">
			<g id="编组-66" transform="translate(907.000000, 708.000000)">
				<g id="编组-33" transform="translate(1.000000, 100.000000)">
					<g id="编组-27" transform="translate(0.000000, 208.000000)">
						<path id="形状" class="st0" d="M26.6,17.5c0.7,0,1.3,0.4,1.6,1l1.6,3.4c0.3,0.7,0.3,1.5-0.1,2.1c-0.4,0.6-1.1,1-1.8,1h-8.8
							c-0.7,0-1.4-0.4-1.8-1c-0.4-0.6-0.4-1.4-0.1-2.1l1.6-3.4c0.3-0.6,0.9-1,1.6-1H26.6z M25.4,18.5h-5c-0.3,0-0.5,0.1-0.6,0.4
							l0,0.1l-1.6,3.4c-0.2,0.3-0.1,0.7,0,1s0.5,0.5,0.8,0.5l0.1,0h1.4c0-1.8,1.4-3.2,3.1-3.2L25.4,18.5z M26.7,18.6l-1.9,2.4
							c1.2,0.5,2,1.6,2,2.9l0,0.1h1.1c0.4,0,0.7-0.2,0.9-0.5c0.2-0.3,0.2-0.7,0.1-1l0-0.1l-1.6-3.4C27.1,18.7,27,18.6,26.7,18.6
							L26.7,18.6z M23.7,21.8c-1.1,0-2.1,0.9-2.1,2.1l0,0.1h4.2c0-1-0.7-1.9-1.7-2.1l0,0l0,0C23.9,21.8,23.8,21.8,23.7,21.8z
							 M23.5,11c1.7,0,3.2,1.4,3.2,3.2s-1.4,3.2-3.2,3.2s-3.2-1.4-3.2-3.2S21.8,11,23.5,11z M23.5,12.1c-1.2,0-2.1,1-2.1,2.2
							s0.9,2.2,2.1,2.2s2.1-1,2.1-2.2S24.7,12.1,23.5,12.1z"/>
					</g>
				</g>
			</g>
		</g>
	</g>
</g>
</svg>
