<?xml version="1.0" encoding="utf-8"?>
<!-- Generator: Adobe Illustrator 22.0.0, SVG Export Plug-In . SVG Version: 6.00 Build 0)  -->
<svg version="1.1" id="图层_1" xmlns="http://www.w3.org/2000/svg" xmlns:xlink="http://www.w3.org/1999/xlink" x="0px" y="0px"
	 viewBox="0 0 14 14" style="enable-background:new 0 0 14 14;" xml:space="preserve">
<style type="text/css">
	.st0{fill:#B0B1B4;}
</style>
<title>形状结合</title>
<g id="总">
	<g id="画板" transform="translate(-111.000000, -516.000000)">
		<g id="编组-72" transform="translate(-813.000000, -609.000000)">
			<g id="编组-66" transform="translate(907.000000, 708.000000)">
				<g id="编组-33" transform="translate(1.000000, 100.000000)">
					<g id="编组-27" transform="translate(0.000000, 304.000000)">
						<path id="形状结合" class="st0" d="M25.9,18.7c2.3,0,4.1,1.8,4.1,4.1S28.2,27,25.9,27s-4.1-1.8-4.1-4.1
							S23.6,18.7,25.9,18.7z M25.9,19.7c-1.8,0-3.1,1.5-3.1,3.2c0,1.7,1.4,3.2,3.1,3.2s3.1-1.5,3.1-3.2C29,21.2,27.6,19.7,25.9,19.7
							z M26,13c0.7,0,1.3,0.6,1.3,1.3l0,0v3.2h-1v-3.2c0-0.1-0.1-0.4-0.4-0.4l0,0h-8.7c-0.1,0-0.4,0.1-0.4,0.4l0,0v10.1
							c0,0.1,0.1,0.4,0.4,0.4l0,0h3.1v1h-3.1c-0.7,0-1.3-0.6-1.3-1.3l0,0V14.3c0-0.7,0.6-1.3,1.3-1.3l0,0H26z M26,21l0.4,0.9
							c0,0.1,0.1,0.1,0.1,0.1l1.1,0.1c0.1,0,0.2,0.2,0.1,0.4L27,23.2c-0.1,0.1-0.1,0.1-0.1,0.2l0.1,1c0,0.1-0.1,0.2-0.2,0.2
							l-0.8-0.5h-0.2l-0.8,0.4c-0.1,0.1-0.4-0.1-0.2-0.2l0.1-1c0-0.1,0-0.1-0.1-0.2l-0.5-0.6c-0.1-0.1-0.1-0.4,0.1-0.4l1-0.1
							c0.1,0,0.1-0.1,0.1-0.1l0.4-0.9C25.8,20.9,26,20.9,26,21z M20.3,20.3c0.2,0,0.5,0.2,0.5,0.5c0,0.2-0.2,0.5-0.5,0.5h-1.2
							c-0.2,0-0.5-0.2-0.5-0.5c0-0.2,0.2-0.5,0.5-0.5H20.3z M22.2,18.1c0.2,0,0.5,0.2,0.5,0.5c0.1,0.2-0.1,0.5-0.5,0.5H19
							c-0.2,0-0.5-0.2-0.5-0.5s0.2-0.5,0.5-0.5H22.2z M24.6,15.8c0.2,0,0.5,0.2,0.5,0.5c0,0.4-0.2,0.5-0.5,0.5h-5.7
							c-0.2,0-0.5-0.2-0.5-0.5s0.2-0.5,0.5-0.5H24.6z"/>
					</g>
				</g>
			</g>
		</g>
	</g>
</g>
</svg>
