<?xml version="1.0" encoding="utf-8"?>
<!-- Generator: Adobe Illustrator 22.0.0, SVG Export Plug-In . SVG Version: 6.00 Build 0)  -->
<svg version="1.1" id="图层_1" xmlns="http://www.w3.org/2000/svg" xmlns:xlink="http://www.w3.org/1999/xlink" x="0px" y="0px"
	 viewBox="0 0 72 72" style="enable-background:new 0 0 72 72;" xml:space="preserve">
<style type="text/css">
	.st0{fill:#74C041;}
</style>
<title>Shape Copy 3</title>
<g id="总">
	<g id="画板" transform="translate(-7316.000000, -426.000000)">
		<g id="编组-72" transform="translate(-813.000000, -609.000000)">
			<g id="编组-65" transform="translate(7520.000000, 684.000000)">
				<g id="编组-33" transform="translate(0.000000, 117.000000)">
					<g id="表格-复杂管理-2" transform="translate(224.000000, 116.000000)">
						<g id="编组-83" transform="translate(325.000000, 118.000000)">
							<path id="Shape-Copy-3" class="st0" d="M96,0c19.9,0,36,16.1,36,36s-16.1,36-36,36S60,55.9,60,36S76.1,0,96,0z M111.1,23.7
								h-4.8c-0.2,0-0.3,0.1-0.4,0.2l0,0L93.1,41.7c0,0-0.1,0.1-0.1,0.1c-0.2,0.2-0.5,0.1-0.7-0.1l0,0L87,34.2
								c-0.4-0.5-1-0.8-1.6-0.8l0,0H81c-0.1,0-0.2,0-0.3,0.1c-0.2,0.2-0.3,0.5-0.1,0.7l0,0l9.9,13.8c0.4,0.5,1,0.8,1.6,0.8l0,0h1.4
								c0.7,0,1.3-0.3,1.6-0.9l0,0l16.4-23.4c0.1-0.1,0.1-0.2,0.1-0.3C111.6,23.9,111.4,23.7,111.1,23.7L111.1,23.7z"/>
						</g>
					</g>
				</g>
			</g>
		</g>
	</g>
</g>
</svg>
