<?xml version="1.0" encoding="utf-8"?>
<!-- Generator: Adobe Illustrator 22.0.0, SVG Export Plug-In . SVG Version: 6.00 Build 0)  -->
<svg version="1.1" id="图层_1" xmlns="http://www.w3.org/2000/svg" xmlns:xlink="http://www.w3.org/1999/xlink" x="0px" y="0px"
	 viewBox="0 0 72 72" style="enable-background:new 0 0 72 72;" xml:space="preserve">
<style type="text/css">
	.st0{fill:#FF4D4F;}
</style>
<title>形状</title>
<g id="总">
	<g id="画板" transform="translate(-7625.000000, -426.000000)">
		<g id="编组-72" transform="translate(-813.000000, -609.000000)">
			<g id="编组-65" transform="translate(7520.000000, 684.000000)">
				<g id="编组-33" transform="translate(0.000000, 117.000000)">
					<g id="表格-复杂管理-2" transform="translate(224.000000, 116.000000)">
						<g id="编组-83" transform="translate(581.000000, 118.000000)">
							<path id="形状" class="st0" d="M149,0c-19.9,0-36,16.1-36,36s16.1,36,36,36s36-16.1,36-36S168.9,0,149,0z M146.4,18.6
								c0-0.4,0.3-0.6,0.6-0.6h3.9c0.4,0,0.6,0.3,0.6,0.6v21.9c0,0.4-0.3,0.6-0.6,0.6h-3.9c-0.4,0-0.6-0.3-0.6-0.6V18.6z M149,54
								c-2.1,0-3.9-1.7-3.9-3.9s1.7-3.9,3.9-3.9s3.9,1.7,3.9,3.9S151.1,54,149,54z"/>
						</g>
					</g>
				</g>
			</g>
		</g>
	</g>
</g>
</svg>
