<?xml version="1.0" encoding="utf-8"?>
<!-- Generator: Adobe Illustrator 22.0.0, SVG Export Plug-In . SVG Version: 6.00 Build 0)  -->
<svg version="1.1" id="图层_1" xmlns="http://www.w3.org/2000/svg" xmlns:xlink="http://www.w3.org/1999/xlink" x="0px" y="0px"
	 viewBox="0 0 16 16" style="enable-background:new 0 0 16 16;" xml:space="preserve">
<style type="text/css">
	.st0{fill:#FFFFFF;}
</style>
<title>形状结合</title>
<g id="总">
	<g id="画板" transform="translate(-556.000000, -3771.000000)">
		<g id="编组-72" transform="translate(-813.000000, -609.000000)">
			<g id="编组-50" transform="translate(907.000000, 4284.000000)">
				<g id="编组-32备份-2" transform="translate(208.000000, 1.000000)">
					<g id="截屏2023-11-08-上午9.39.37" transform="translate(0.000000, 45.000000)">
						<g id="客户备份-4" transform="translate(32.000000, 42.000000)">
							<g id="编组-53" transform="translate(212.000000, 0.000000)">
								<path id="形状结合" class="st0" d="M17.4,8c4.1,0,7.4,3.3,7.4,7.4c0,1.8-0.6,3.4-1.7,4.7l0,0l2.6,2.6
									c0.3,0.3,0.3,0.8,0,1.1c-0.3,0.3-0.8,0.3-1.1,0l0,0L22,21.2l0,0c-1.2,1-2.7,1.6-4.4,1.7h-0.2c-4.1,0-7.4-3.3-7.4-7.4
									S13.3,8,17.4,8z M17.4,9.5c-3.3,0-5.9,2.6-5.9,5.9s2.6,5.9,5.9,5.9s5.9-2.6,5.9-5.9S20.6,9.5,17.4,9.5z"/>
							</g>
						</g>
					</g>
				</g>
			</g>
		</g>
	</g>
</g>
</svg>
