<?xml version="1.0" encoding="utf-8"?>
<!-- Generator: Adobe Illustrator 22.0.0, SVG Export Plug-In . SVG Version: 6.00 Build 0)  -->
<svg version="1.1" id="图层_1" xmlns="http://www.w3.org/2000/svg" xmlns:xlink="http://www.w3.org/1999/xlink" x="0px" y="0px"
	 viewBox="0 0 84 84" style="enable-background:new 0 0 84 84;" xml:space="preserve">
<style type="text/css">
	.st0{fill:#FFFFFF;}
</style>
<title>形状</title>
<g id="总">
	<g id="画板" transform="translate(-5636.000000, -11071.000000)">
		<g id="编组-72" transform="translate(-813.000000, -609.000000)">
			<g id="编组-15" transform="translate(5771.000000, 11267.000000)">
				<path id="形状" class="st0" d="M720,413c-23.2,0-42,18.8-42,42s18.8,42,42,42s42-18.8,42-42S743.2,413,720,413z M733.7,456.1
					l-20.5,14.8c-0.1,0.1-0.3,0.1-0.4,0.1c-0.4,0-0.8-0.3-0.8-0.7v-29.5c0-0.2,0-0.3,0.1-0.4c0.2-0.3,0.7-0.4,1.1-0.2l20.5,14.8
					c0.1,0,0.1,0.1,0.2,0.2C734.1,455.4,734,455.9,733.7,456.1z"/>
			</g>
		</g>
	</g>
</g>
</svg>
