<?xml version="1.0" encoding="utf-8"?>
<!-- Generator: Adobe Illustrator 22.0.0, SVG Export Plug-In . SVG Version: 6.00 Build 0)  -->
<svg version="1.1" id="图层_1" xmlns="http://www.w3.org/2000/svg" xmlns:xlink="http://www.w3.org/1999/xlink" x="0px" y="0px"
	 viewBox="0 0 16 16" style="enable-background:new 0 0 16 16;" xml:space="preserve">
<style type="text/css">
	.st0{fill-opacity:0;}
	.st1{fill:#BFBFBF;}
</style>
<title>calendar</title>
<g id="总">
	<g id="画板" transform="translate(-1468.000000, -10886.000000)">
		<g id="编组-72" transform="translate(-813.000000, -609.000000)">
			<g id="编组-33" transform="translate(917.000000, 11282.000000)">
				<g id="编组-32备份-2" transform="translate(208.000000, 1.000000)">
					<g id="编组-26" transform="translate(48.000000, 204.000000)">
						<g id="客户备份-4" transform="translate(784.000000, 0.000000)">
							<g id="编组-5" transform="translate(80.000000, 0.000000)">
								<g id="calendar" transform="translate(244.000000, 8.000000)">
									<rect id="矩形" class="st0" width="16" height="16"/>
									<path id="形状" class="st1" d="M13.8,2.9h-2.6v-1c0-0.1-0.1-0.1-0.1-0.1h-0.9c-0.1,0-0.1,0.1-0.1,0.1v1H6v-1
										c0-0.1-0.1-0.1-0.1-0.1H5c-0.1,0-0.1,0.1-0.1,0.1v1H2.2C2,2.9,1.8,3.1,1.8,3.4v10.4c0,0.3,0.2,0.5,0.5,0.5h11.5
										c0.3,0,0.5-0.2,0.5-0.5V3.4C14.2,3.1,14,2.9,13.8,2.9z M13.1,13.1H2.9V7.2h10.2V13.1z M2.9,6.1V4h2v0.8
										c0,0.1,0.1,0.1,0.1,0.1h0.9C5.9,4.9,6,4.8,6,4.8V4h4v0.8c0,0.1,0.1,0.1,0.1,0.1H11c0.1,0,0.1-0.1,0.1-0.1V4h2v2.1H2.9z"/>
								</g>
							</g>
						</g>
					</g>
				</g>
			</g>
		</g>
	</g>
</g>
</svg>
