<?xml version="1.0" encoding="utf-8"?>
<!-- Generator: Adobe Illustrator 22.0.0, SVG Export Plug-In . SVG Version: 6.00 Build 0)  -->
<svg version="1.1" id="图层_1" xmlns="http://www.w3.org/2000/svg" xmlns:xlink="http://www.w3.org/1999/xlink" x="0px" y="0px"
	 viewBox="0 0 14 14" style="enable-background:new 0 0 14 14;" xml:space="preserve">
<style type="text/css">
	.st0{fill:#B0B1B4;}
</style>
<title>形状结合</title>
<g id="总">
	<g id="画板" transform="translate(-111.000000, -468.000000)">
		<g id="编组-72" transform="translate(-813.000000, -609.000000)">
			<g id="编组-66" transform="translate(907.000000, 708.000000)">
				<g id="编组-33" transform="translate(1.000000, 100.000000)">
					<g id="编组-29" transform="translate(0.000000, 256.000000)">
						<path id="形状结合" class="st0" d="M25,25.9c0.3,0,0.6,0.3,0.6,0.6c0,0.3-0.2,0.6-0.6,0.6l0,0h-4c-0.3,0-0.6-0.3-0.6-0.6
							c0-0.3,0.2-0.6,0.6-0.6l0,0H25z M27.7,13c1.3,0,2.3,1,2.3,2.3l0,0v7.1c0,1.3-1,2.3-2.3,2.3l0,0h-9.5c-1.3,0-2.3-1-2.3-2.3l0,0
							v-7.1c0-1.3,1-2.3,2.3-2.3l0,0H27.7z M27.7,14.2h-9.5c-0.6,0-1.1,0.5-1.1,1.1l0,0v7.1c0,0.6,0.5,1.1,1.1,1.1l0,0h9.5
							c0.6,0,1.1-0.5,1.1-1.2l0,0v-7.1C28.9,14.7,28.4,14.2,27.7,14.2L27.7,14.2z M26.1,17.1c0.2-0.2,0.6-0.2,0.8,0
							c0.2,0.2,0.2,0.6,0,0.8l0,0l-2.6,2.8c-0.1,0.1-0.3,0.2-0.4,0.2l0,0c-0.2,0-0.3-0.1-0.4-0.2l0,0l-1.7-1.8l-2,2.1
							c-0.1,0.1-0.3,0.2-0.4,0.2S19.2,21,19,20.9c-0.2-0.2-0.2-0.6,0-0.8l0,0l2.4-2.5c0.1-0.1,0.3-0.2,0.4-0.2
							c0.2,0,0.3,0.1,0.4,0.2l0,0l1.7,1.8L26.1,17.1z"/>
					</g>
				</g>
			</g>
		</g>
	</g>
</g>
</svg>
