<?xml version="1.0" encoding="utf-8"?>
<!-- Generator: Adobe Illustrator 22.0.0, SVG Export Plug-In . SVG Version: 6.00 Build 0)  -->
<svg version="1.1" id="图层_1" xmlns="http://www.w3.org/2000/svg" xmlns:xlink="http://www.w3.org/1999/xlink" x="0px" y="0px"
	 viewBox="0 0 221 24" style="enable-background:new 0 0 221 24;" xml:space="preserve">
<style type="text/css">
	.st0{fill:#FFFFFF;}
</style>
<title>编组 88</title>
<g id="总">
	<g id="画板" transform="translate(-119.000000, -211.000000)">
		<g id="编组-72" transform="translate(-813.000000, -609.000000)">
			<g id="编组-66" transform="translate(907.000000, 708.000000)">
				<g id="编组-33" transform="translate(1.000000, 100.000000)">
					<g id="编组-88" transform="translate(24.000000, 12.000000)">
						
							<image style="overflow:visible;enable-background:new    ;" width="211" height="211" id="_x31_51696671237_x5F_.pic" xlink:href="52F3426FE824A610.png"  transform="matrix(0.1137 0 0 0.1137 0 0)">
						</image>
						<g id="挚途云端智能调度系统" transform="translate(33.125000, 3.164062)">
							<path id="形状" class="st0" d="M7.3,3.7C7.8,3.8,8.2,4,8.6,4.1c0.1-0.3,0.2-0.6,0.2-0.8H7.5V1.6H9V0.2c1.9,0,2.7,0,2.5,0.1
								c0,0,0,0.1-0.1,0.2c-0.1,0.3-0.2,0.6-0.3,1.1h3.2c0,0.1,0,0.3-0.1,0.6c-0.1,0.8-0.1,1.5-0.1,2v0.4c0,0.8,0.1,1.3,0.4,1.3
								c0.1,0,0.3-0.4,0.4-1c0.8,0.4,1.4,0.8,1.7,1.1c-0.2,1.5-0.7,2.3-1.4,2.3c-0.6,0-1.1-0.2-1.5-0.5c0,0.1,0.4,0.6,1.2,1.5
								c-2.2,0.2-3.9,0.4-5.2,0.4v0.7h5v1.5h-5v0.6h6.5v1.7H9.6v1.2c0.2,1.2-1,1.7-3.6,1.7c0-0.5-0.3-1.2-0.6-2.1
								c1.5,0.2,2.1-0.1,1.8-0.8H0v-1.7h7.3v-0.6H1.8v-1.5h5.6V9.8H1.4C1.3,9.4,1.1,9,0.8,8.3h1C1.6,7.7,1.4,7.2,1.2,6.8
								c1.2,0,1.7-0.1,1.5-0.6V5.8C1.9,6,1.2,6.1,0.6,6.3L0,4.3c0.3,0,0.8-0.1,1.5-0.1c0.5,0,0.9-0.1,1.1-0.1V3.2H0.1V1.6h2.6V0.2
								c1.7,0,2.4,0,2.2,0.1c0,0,0,0.1-0.1,0.1c0,0.2-0.1,0.4-0.1,0.6v0.6h2v1.5h-2v0.7l2-0.2L6.7,4.8C6.9,4.4,7.1,4,7.3,3.7z
								 M12.3,5.5c-0.1-0.5-0.1-0.9-0.1-1.2v-1H11c0,0.3-0.2,0.8-0.4,1.3c0,0,0,0-0.1,0.1C11.4,5.1,12,5.3,12.3,5.5z M5,6.9
								C6.2,6.5,7.1,6,7.6,5.5L6.5,5.1c-0.2,0-0.5,0-0.8,0.1C5.3,5.3,5,5.4,4.9,5.4V7c0.1,0.6-0.2,1-0.9,1.2c0.3,0,0.8,0,1.5-0.1
								c0.4,0,0.7,0,0.8,0C5.8,7.5,5.4,7.1,5,6.9z M7.2,8.2C10.1,8,12,7.8,13.1,7.5c-0.4-0.6-0.7-1.1-0.8-1.8
								C12,6,11.6,6.5,11.2,7.2C10.9,7,10.4,6.7,9.6,6.4C8.8,7.1,8,7.7,7.2,8.2z"/>
							<path id="形状_1_" class="st0" d="M23.2,5.5c2.2-1.6,3.6-3.4,4.2-5.3c1.7,0,2.7,0.1,2.8,0.1c0,0,0,0.1-0.1,0.2
								c-0.1,0-0.1,0.1-0.1,0.1c0.9,2,2.6,3.3,5,4.1c-0.5,0.5-1,1.2-1.4,2.2c-0.8-0.4-1.5-0.8-2.1-1.3v0.7h-1.5v1.3h4.2v1.7h-4.2
								v3.4c0.2,0.9-0.6,1.5-2.3,1.6c1.4,0,3.2-0.1,5.4-0.2c1.1-0.1,1.8-0.1,2.1-0.1c-0.3,0.6-0.6,1.4-0.8,2.4c-5.6,0-9-0.1-10-0.4
								c-0.4-0.1-0.9-0.5-1.5-1c-0.4-0.4-0.7-0.6-0.8-0.6c-0.2,0-0.7,0.5-1.5,1.5c-0.3,0.4-0.4,0.6-0.5,0.6
								c-0.7-0.8-1.1-1.5-1.5-2.2c0,0,0.3-0.2,0.6-0.4c1.2-0.8,1.8-1.3,1.8-1.4V8.1h-2.3v-2h4.5v6c0.1,0.7,0.5,1.2,1.3,1.7
								c0.7,0.3,1.6,0.5,2.7,0.5c0-0.7-0.2-1.5-0.7-2.2c1.1,0,1.5-0.1,1.4-0.5V9.3h-4V7.6h3.9V6.3h-1.8V5.6c-0.7,0.7-1,1-1.1,1.1
								C24.5,6.2,23.9,5.8,23.2,5.5z M20.2,1.3c1.3-0.3,2-0.5,2.3-0.6c0.5,1.3,0.8,2.4,1,3.4c-0.4,0.1-1,0.2-1.8,0.4
								c-0.2,0-0.3,0.1-0.4,0.1C21,3.3,20.6,2.1,20.2,1.3z M27.1,4.6h3.2c-0.2-0.3-0.6-0.8-1-1.5c-0.2-0.3-0.4-0.6-0.6-0.8
								C28.2,3.1,27.7,3.9,27.1,4.6z M27.6,10.5c0,0-0.1,0.2-0.3,0.4c-0.7,0.7-1.3,1.5-2,2.4l-1.8-1.1c0.8-0.8,1.5-1.6,2.1-2.6
								C26.6,10,27.3,10.3,27.6,10.5z M30.2,10.5c0,0,0.6-0.4,1.6-1.1c0.9,1,1.7,2,2.4,3c-0.7,0.3-1.3,0.8-1.8,1.3
								C32.2,13.1,31.4,12.1,30.2,10.5z"/>
							<path id="形状_2_" class="st0" d="M51.2,3.8h-11v-2h11V3.8z M43.3,8.1h-5.4V6h15.7v2h-7c-0.6,1.1-1.7,2.8-3.4,5.1
								c0.8,0,1.9-0.1,3.6-0.2c0.8,0,1.4-0.1,1.8-0.1c-0.4-0.6-0.8-1.3-1.4-2c-0.2-0.2-0.4-0.4-0.4-0.4c0.2-0.1,0.7-0.4,1.3-0.8
								c0.5-0.3,0.7-0.5,0.7-0.5c1.2,1.5,2.6,3.4,4.1,5.8c0,0-0.4,0.3-1.3,0.8c-0.6,0.3-1,0.6-1.2,0.7c0,0-0.1-0.2-0.3-0.6
								c-0.2-0.5-0.4-0.9-0.5-1.1c-2.8,0-5.2,0.3-7.5,0.7c-0.2,0-0.7,0.2-1.4,0.4c-0.8,0.2-1.2,0.3-1.3,0.3
								c-0.1-0.1-0.2-0.6-0.4-1.4c-0.1-0.8-0.1-1.2-0.1-1.3c0.8-0.3,1.4-0.7,1.8-1.1C42,11.1,42.8,9.6,43.3,8.1z"/>
							<path id="形状_3_" class="st0" d="M63.6,1.1h1.2c0.7,0,1,0.1,1,0.2c0,0,0,0.1-0.1,0.2c0,0.2-0.1,0.5-0.1,0.8v1.5h1.1V0.1
								h1.1c0.8,0,1.1,0,1,0.2c0,0,0,0.1,0,0.2c-0.1,0.2-0.1,0.5-0.1,0.8v2.5h1.2V1.1H71c0.8,0,1.1,0,1.1,0.1c0,0.1,0,0.2,0,0.4
								C72,1.8,72,2.1,72,2.4v3.2h-8.4V1.1z M63.1,3.4v1.8h-6.6V3.4H63.1z M56.9,6.3l2-0.4c0.3,2.2,0.4,3.9,0.5,5.1l-1.8,0.2
								C57.4,9.5,57.2,7.9,56.9,6.3z M70.2,14.5v-3.7h-0.6v4.1C70.1,15,70.3,14.8,70.2,14.5z M62.6,5.8c0,0,0,0.1-0.1,0.3
								c-0.1,0.2-0.2,0.4-0.2,0.7s-0.2,0.9-0.4,1.9c-0.3,1.4-0.5,2.4-0.6,3.1l1.3-0.4c0,0.5,0,1.2,0,2c-1.9,0.5-3.8,1-5.7,1.6
								c0,0-0.2-0.5-0.4-1.4c-0.2-0.5-0.3-0.8-0.3-0.8s0.6-0.2,1.9-0.4c0.6-0.1,1.1-0.2,1.5-0.3c0.3-1.6,0.5-3.8,0.6-6.6
								C61.4,5.5,62.3,5.6,62.6,5.8z M58.6,0.7l2.2-0.3c0.2,1.1,0.4,1.9,0.4,2.5l-2,0.3C59,2.2,58.8,1.4,58.6,0.7z M72.8,6.3v1.8
								h-4.2l-0.4,1.1h4.1v6.1c0.2,1-0.7,1.5-2.7,1.4c0-0.1,0-0.2-0.1-0.4c0-0.4,0-0.6-0.1-0.8h-1.5v-4.7h-0.6v4.6h-1.6v-4.6H65v5.8
								h-2V9.2h3l0.3-1.1h-3.6V6.3H72.8z"/>
							<path id="形状_4_" class="st0" d="M75.8,3.5c1-0.9,1.7-2.1,2.1-3.5c1.5,0.3,2.4,0.5,2.5,0.6c0,0,0,0.1-0.1,0.1
								c-0.2,0.2-0.5,0.5-0.8,1h4.3v1.8h-2c0,0.3,0,0.6-0.1,1h2.3v1.8h-2.5c1,0.4,2,0.9,3,1.5V1.5H91v6.6h-6.5
								c-0.4,0.2-0.8,0.6-1.3,1.1h5.8v7.5h-2.3v-0.9H81v0.9h-2.2V9.2h3.8c-0.4-0.4-1.2-1-2.2-1.8c-1.1,1.1-2.2,2.1-3.4,2.8
								c-0.3-0.5-0.8-1-1.4-1.5c-0.1-0.1-0.2-0.2-0.2-0.2C77,8,78.2,7.2,79,6.3h-3.3V4.6h1.5C76.9,4.2,76.4,3.9,75.8,3.5z M78.4,3.5
								l-0.8,1.1h2c0.1-0.4,0.2-0.7,0.2-1.1H78.4z M88.8,6.3V3.4h-2.2v2.8H88.8z M81,10.8v0.9h5.7v-0.9H81z M81,13.3v0.8h5.8v-0.8
								H81z"/>
							<path id="形状_5_" class="st0" d="M94.8,4.3c0.6-0.1,1.1-0.5,1.3-1c0.9-1.5,1.4-2.6,1.5-3.2c1.7,0.4,2.5,0.6,2.5,0.7
								c-0.9,1-1.7,2.1-2.5,3.4l2.5-0.1c-0.4-0.7-0.7-1.2-1.1-1.7c0.5-0.2,1.1-0.5,1.8-0.8c1.2,1.8,1.9,3,2.1,3.5
								c-0.3,0.3-0.9,0.6-1.8,1.1c0,0-0.1-0.2-0.3-0.7c-1.8,0.1-3.4,0.3-4.9,0.5c-0.5,0-0.8,0.1-1,0.1C94.9,5.5,94.8,4.9,94.8,4.3z
								 M95.4,16.6V6.8h6.7V15c0.1,1.3-0.9,1.9-3,1.7c-0.1-0.7-0.3-1.3-0.5-2h0.6c0.4,0,0.6-0.2,0.6-0.6v-0.8h-2.3v3.3H95.4z
								 M110.3,13.2c0,2.5-0.8,3.6-2.4,3.4h-3.2c-1.1,0-1.6-0.5-1.5-1.7V8.4h0.4c1.4,0,2,0.1,2,0.3c0,0,0,0.2-0.1,0.4
								c0,0.2-0.1,0.4-0.1,0.6v0.8c0.8-0.3,1.6-0.9,2.6-1.8c1.3,1.1,2,1.7,2,1.8c-0.3,0.1-1.1,0.5-2.4,1.1c-1,0.5-1.7,0.8-2.2,1v1.4
								c0,0.4,0.2,0.6,0.6,0.6h1.3c0.6,0.1,0.8-0.6,0.7-2C108.6,12.8,109.4,13,110.3,13.2z M97.5,8.6v0.8h2.4V8.6H97.5z M97.5,11.7
								h2.4v-0.8h-2.4V11.7z M104.2,0.4c1.1,0,1.6,0,1.5,0.2c0,0,0,0.1-0.1,0.2c0,0.3-0.1,0.6-0.1,0.8V3c0.9-0.5,1.8-1,2.5-1.5
								c0.1-0.1,0.1-0.1,0.1-0.1c1.2,1.1,1.8,1.7,1.8,1.8c-1.3,0.4-2.8,0.9-4.4,1.6v0.8c0,0.4,0.2,0.6,0.6,0.6h1.1
								c0.6,0,0.8-0.4,0.8-1.4c0.8,0.3,1.5,0.6,2.1,0.8c-0.2,1.9-0.9,2.7-2.2,2.5h-2.4c-1.5,0.1-2.3-0.4-2.2-1.5V0.4H104.2z"/>
							<path id="形状_6_" class="st0" d="M118.6,8.3V1h10.3v14c0.3,1.3-0.8,1.9-3.2,1.8c-0.1-0.7-0.3-1.5-0.7-2.2
								c1.5,0.2,2.1-0.1,1.8-1V8.3h-6.2v0.3c0,3.3-0.6,5.9-2,7.8c-0.7-0.3-1.4-0.6-2-0.9c0.9-1,1.5-2.1,1.8-3.2
								c-0.4,0.3-1.1,1.1-2,2.3c-0.4,0.5-0.6,0.8-0.7,0.8c-0.4-0.5-0.8-1.2-1.3-2.2c0.5-0.9,0.7-2.2,0.7-3.9V7.1h-1.8V5.2h3.8v5.6
								l0.8-0.8c0.1,0.5,0.3,1.1,0.6,1.7C118.6,10.7,118.6,9.6,118.6,8.3z M122.9,13.5v0.7h-1.8V9.1h5v4.9h-2v-0.4H122.9z
								 M114.2,1.4l2.2-0.9c0.5,0.8,1,1.9,1.5,3.2l-2.1,0.8C115.3,3.3,114.7,2.3,114.2,1.4z M126.8,6.7V2.7h-2.2v1.3h1.6v1.5h-1.7
								v1.1H126.8z M122.6,6.7V5.6h-1.4V4.1h1.4V2.7h-2v3.9H122.6z M124.1,10.6h-1.2v1.5h1.2V10.6z"/>
							<path id="形状_7_" class="st0" d="M133.6,1.8h6.1c0-0.1-0.1-0.4-0.2-0.8c-0.2-0.4-0.3-0.6-0.2-0.6l2.9-0.3
								c0.1,0.3,0.2,0.9,0.4,1.8h5.3v1.9h-2.7v1.3h2.6V7h-2.6v2.4h-7.2V7h-2.1v2.6c0,2.9-0.7,5.2-2.1,7.1c-0.7-0.4-1.4-0.8-2-1.1
								c1.3-1.6,2-3.9,2-6.8V1.8z M135.7,5.1h2.1V3.7h-2.1V5.1z M142.8,3.7h-2.7v1.4h2.7V3.7z M140.2,7.7h2.7V7h-2.7V7.7z M140,11.7
								c0.4,0.5,0.9,0.9,1.3,1.3c0.5-0.4,0.8-0.8,1.1-1.3H140z M135.1,14.5c1.8,0,3.2-0.2,4.1-0.6c-0.7-0.7-1.3-1.4-1.8-2.2h-1.1V10
								h10c-0.8,1.7-1.6,3-2.5,3.9c1.8,0.3,3.3,0.5,4.4,0.4c-0.5,0.8-0.9,1.7-1.1,2.5c-1.9-0.2-3.7-0.7-5.4-1.5
								c-1.7,0.6-3.5,1.1-5.3,1.4C136.2,16,135.8,15.2,135.1,14.5z"/>
							<path id="形状_8_" class="st0" d="M151.5,1.3c6.4,0.1,11-0.1,13.6-0.8c0.4,0.4,0.9,1.1,1.5,2.2c0,0-0.6,0.1-1.5,0.1
								c-1.8,0-3.6,0.1-5.2,0.3c-0.1,0.1-0.5,0.5-1.3,1.1c-0.7,0.6-1.2,1-1.4,1.2l2.7-0.1c0.1,0,0.7-0.5,1.8-1.4
								c0.7-0.6,1-0.8,1.1-0.8c0.8,0.5,1.5,1.1,2,1.7c0,0-0.5,0.4-1.6,1c-2,1.1-3.7,2.1-5.1,3h4.7l-1.1-1.1c0.7-0.5,1.3-0.9,1.8-1.3
								c1.4,1.3,2.5,2.6,3.4,3.7c-0.7,0.6-1.3,1-1.8,1.4l-0.8-1l-3.4,0.1v4.7c0.2,0.9-1,1.4-3.4,1.3c-0.1-0.6-0.4-1.3-0.7-2.2
								c1.2,0,1.8-0.2,1.7-0.5v-3.2c-2.4,0-4.2,0-5.2,0.3c-0.1,0-0.2,0-0.2,0c0-0.3-0.1-0.6-0.1-1.1c-0.1-0.5-0.2-0.9-0.2-1.3
								c1.5,0,3-0.5,4.5-1.6c-1.1,0.1-2.3,0.2-3.7,0.4c-0.2-0.9-0.3-1.6-0.3-2.1c1.1,0,2.2-0.6,3.3-2c-0.4,0-1.1,0-1.9,0.1
								s-1.5,0.1-2,0.1C152.2,2.8,151.8,2,151.5,1.3z M161.5,12.6c0.6-0.6,1.1-1.1,1.5-1.5c1.4,0.8,2.8,1.8,4.2,3
								c-1,1-1.6,1.6-1.8,1.8C164.3,14.7,163,13.6,161.5,12.6z M154.7,11c0.2,0.1,0.7,0.4,1.3,0.6c0.6,0.2,0.9,0.4,0.9,0.4
								c-1.1,1.2-2.3,2.4-3.8,3.8c-0.6-0.5-1.2-1-2-1.5C152.7,13.4,153.9,12.3,154.7,11z"/>
							<path id="形状_9_" class="st0" d="M169.6,13c2-0.4,4.1-0.8,6.5-1.4c0,0.6,0.1,1.3,0.2,2c-2.7,0.8-4.6,1.4-5.8,1.8
								c-0.1,0-0.1,0.1-0.1,0.1s-0.1-0.4-0.4-1.2C169.7,13.4,169.6,13,169.6,13z M173.5,9.3c0.2,0,0.5-0.1,0.8-0.1
								c0.6-0.1,1.1-0.2,1.6-0.3c-0.1,0.7-0.2,1.3-0.1,1.9c-2.5,0.4-4.3,0.8-5.4,1.1c-0.1,0-0.2,0-0.2,0c-0.2-0.5-0.3-1.3-0.4-2.2
								c0,0,0.1,0,0.2-0.1c0.6,0,1.2-0.4,1.7-1.1c0.3-0.4,0.7-0.8,1-1.4c-0.2,0-0.8,0.1-1.5,0.3c-0.7,0.1-1.1,0.2-1.1,0.1
								c-0.3-0.8-0.4-1.4-0.5-2c0,0,0,0,0.1-0.1c0.7-0.2,1.2-0.6,1.4-1.2c0.8-2.1,1.2-3.4,1.4-3.9c0.7,0.1,1.5,0.4,2.5,0.8
								c0,0-0.1,0.2-0.2,0.4c-0.6,0.9-1.3,2.1-2.1,3.7l1.2-0.1c0.6-1,0.9-1.6,1-1.8l1.3,0.6V2.6h3.4c0-0.1-0.1-0.4-0.1-0.6
								c-0.1-0.6-0.2-1-0.3-1.3c0.9-0.1,1.8-0.3,2.7-0.4c0,0.1,0,0.3,0.1,0.6c0.1,0.8,0.2,1.4,0.2,1.6h3.7v1.9h-4.6l-1.6,2.8
								c1.4-0.1,2.3-0.1,2.8-0.1c-0.3-0.3-0.6-0.7-0.9-1.1l1.6-1c1.1,1.2,2.1,2.5,3,3.9c-0.6,0.2-1.2,0.6-1.9,1.1
								c-0.2-0.3-0.4-0.7-0.8-1.2l-0.5,0.1v5c0,0.4,0.1,0.6,0.4,0.6h0.3c0.4,0.1,0.5-0.4,0.5-1.7c0.9,0.3,1.7,0.5,2.3,0.6
								c-0.1,2.4-0.7,3.5-1.9,3.2H182c-1,0.1-1.4-0.4-1.3-1.6V9.1L180,9.1c0,2.7-0.3,4.4-0.8,5.1c-0.4,0.9-1.6,1.8-3.7,2.7
								c-0.4-0.8-0.9-1.4-1.3-2c2.6-0.3,3.8-1.9,3.6-4.6V9.3c-0.2,0-0.5,0-0.9,0.1c-0.2,0-0.4,0-0.4,0c-0.1-0.2-0.2-1-0.3-2.2
								c0,0,0,0,0.1,0c0.5,0,0.9,0,1.1-0.2c0.4-0.4,0.8-1.2,1.3-2.5h-1.7C176.4,5,175.3,6.6,173.5,9.3z"/>
						</g>
					</g>
				</g>
			</g>
		</g>
	</g>
</g>
</svg>
