<?xml version="1.0" encoding="utf-8"?>
<!-- Generator: Adobe Illustrator 22.0.0, SVG Export Plug-In . SVG Version: 6.00 Build 0)  -->
<svg version="1.1" id="图层_1" xmlns="http://www.w3.org/2000/svg" xmlns:xlink="http://www.w3.org/1999/xlink" x="0px" y="0px"
	 viewBox="0 0 12 12" style="enable-background:new 0 0 12 12;" xml:space="preserve">
<style type="text/css">
	.st0{opacity:0.45;}
	.st1{fill:none;}
	.st2{fill:#FFFFFF;}
</style>
<title>Group 52 Copy 12</title>
<g id="总" class="st0">
	<g id="画板" transform="translate(-275.000000, -373.000000)">
		<g id="编组-72" transform="translate(-813.000000, -609.000000)">
			<g id="编组-66" transform="translate(907.000000, 708.000000)">
				<g id="编组-33" transform="translate(1.000000, 100.000000)">
					<g id="编组-29" transform="translate(0.000000, 160.000000)">
						<g id="Group-52-Copy-12" transform="translate(180.000000, 14.000000)">
							<rect id="Rectangle-12" class="st1" width="12" height="12"/>
							<path id="Combined-Shape" class="st2" d="M10.9,3.1c0.2,0.2,0.2,0.5,0,0.7l-4.5,5c0,0-0.1,0.1-0.1,0.1C6.2,9,6.1,9,6,9
								c0,0,0,0,0,0c0,0,0,0,0,0C5.9,9,5.8,9,5.7,8.9c0,0-0.1-0.1-0.1-0.1l-4.5-5c-0.2-0.2-0.2-0.5,0-0.7s0.5-0.2,0.7,0l0,0L6,7.8
								l4.2-4.7C10.4,3,10.7,3,10.9,3.1z"/>
						</g>
					</g>
				</g>
			</g>
		</g>
	</g>
</g>
</svg>
