<?xml version="1.0" encoding="UTF-8"?>
<svg width="22px" height="22px" viewBox="0 0 22 22" version="1.1" xmlns="http://www.w3.org/2000/svg" xmlns:xlink="http://www.w3.org/1999/xlink">
    <title>路径</title>
    <defs>
        <linearGradient x1="50%" y1="0%" x2="50%" y2="100%" id="linearGradient-1">
            <stop stop-color="#96BCFF" offset="0%"></stop>
            <stop stop-color="#81A4F2" offset="48.4620617%"></stop>
            <stop stop-color="#6677EF" offset="100%"></stop>
        </linearGradient>
    </defs>
    <g id="页面-2" stroke="none" stroke-width="1" fill="none" fill-rule="evenodd">
        <g id="画板" transform="translate(-4162.000000, -440.000000)" fill="url(#linearGradient-1)" fill-rule="nonzero">
            <g id="编组-66" transform="translate(3310.000000, 162.000000)">
                <g id="编组-47" transform="translate(224.000000, 116.000000)">
                    <g id="编组-55" transform="translate(604.000000, 136.000000)">
                        <g id="编组-49" transform="translate(24.000000, 24.000000)">
                            <g id="编组" transform="translate(0.000000, 2.000000)">
                                <path d="M13.1868,13.1252 C12.8436,13.4464 12.3024,13.4332 11.9724,13.0988 L8.8792,9.9396 L4.972,13.9128 C4.8004,14.0844 4.576,14.1724 4.3516,14.1724 C4.1316,14.1724 3.9116,14.0888 3.7444,13.9216 C3.4012,13.5872 3.3968,13.0372 3.7312,12.694 L8.2588,8.0828 C8.4216,7.9156 8.646,7.8232 8.8792,7.8232 C9.1124,7.8232 9.3368,7.9156 9.4996,8.0828 L12.6192,11.2684 L19.8748,4.5012 C17.8772,1.7776 14.6476,0 11,0 C4.9236,0 0,4.9236 0,11 C0,17.0764 4.9236,22 11,22 C17.0764,22 22,17.0764 22,11 C22,9.2048 21.5688,7.5152 20.8076,6.0192 L13.1868,13.1252 Z" id="路径"></path>
                            </g>
                        </g>
                    </g>
                </g>
            </g>
        </g>
    </g>
</svg>