<?xml version="1.0" encoding="utf-8"?>
<!-- Generator: Adobe Illustrator 22.0.0, SVG Export Plug-In . SVG Version: 6.00 Build 0)  -->
<svg version="1.1" id="图层_1" xmlns="http://www.w3.org/2000/svg" xmlns:xlink="http://www.w3.org/1999/xlink" x="0px" y="0px"
	 viewBox="0 0 14 14" style="enable-background:new 0 0 14 14;" xml:space="preserve">
<style type="text/css">
	.st0{fill:#B0B1B4;}
</style>
<title>形状</title>
<g id="总">
	<g id="画板" transform="translate(-111.000000, -372.000000)">
		<g id="编组-72" transform="translate(-813.000000, -609.000000)">
			<g id="编组-66" transform="translate(907.000000, 708.000000)">
				<g id="编组-33" transform="translate(1.000000, 100.000000)">
					<g id="编组-29" transform="translate(0.000000, 160.000000)">
						<path id="形状" class="st0" d="M28,25.4L28,25.4c-0.2,1-0.9,1.6-1.7,1.6c-0.8,0-1.5-0.6-1.6-1.5l0-0.1h-4l0,0.1
							c-0.2,0.8-0.9,1.4-1.6,1.4c-0.8,0-1.5-0.6-1.6-1.4l0-0.1H16V14c0-0.6,0.4-1,1-1h7.6c0.6,0,1,0.4,1,1v0.8l0,0h1
							c0.3,0,0.7,0.2,0.9,0.4l2.2,3.4c0.2,0.2,0.3,0.6,0.3,0.9v5.9H28z M26.3,26.1c0.4,0,0.8-0.2,0.9-0.7s0.1-0.9-0.2-1.2
							S26.4,23.8,26,24s-0.6,0.6-0.6,1C25.4,25.6,25.8,26.1,26.3,26.1L26.3,26.1z M19,26.1c0.4,0,0.8-0.2,0.9-0.7s0.1-0.9-0.2-1.2
							c-0.3-0.3-0.7-0.4-1.1-0.3c-0.4,0.2-0.6,0.6-0.6,1C18.1,25.6,18.5,26,19,26.1L19,26.1z M24.9,13.9h-8.1V21h8.1V13.9z
							 M29.1,19.1L27,15.9c-0.1-0.1-0.2-0.2-0.4-0.2h-1V21h3.6v-1.5C29.3,19.4,29.2,19.2,29.1,19.1z M29.2,21.9H16.8v2.7
							c0,0,0.5,0,0.6,0l0.1,0l0-0.1c0.1-0.9,0.8-1.5,1.7-1.6c0.8,0,1.5,0.6,1.7,1.5l0,0.1h4l0-0.1c0.2-0.9,0.8-1.5,1.6-1.5
							s1.5,0.6,1.7,1.4l0,0.1h1.3V21.9L29.2,21.9z M19.9,17.5h-1.6c-0.2,0-0.3-0.2-0.3-0.4s0.1-0.4,0.3-0.4h1.6
							c0.2,0,0.3,0.2,0.3,0.4S20.1,17.5,19.9,17.5L19.9,17.5z M21.2,19.3h-2.9c-0.2,0-0.3-0.2-0.3-0.4c0-0.2,0.1-0.4,0.3-0.4h2.9
							c0.2,0,0.3,0.2,0.3,0.4c0,0.1,0,0.2-0.1,0.3S21.3,19.3,21.2,19.3L21.2,19.3z"/>
					</g>
				</g>
			</g>
		</g>
	</g>
</g>
</svg>
