<?xml version="1.0" encoding="UTF-8"?>
<svg width="22px" height="22px" viewBox="0 0 22 22" version="1.1" xmlns="http://www.w3.org/2000/svg" xmlns:xlink="http://www.w3.org/1999/xlink">
    <title>形状</title>
    <defs>
        <linearGradient x1="50%" y1="0%" x2="50%" y2="100%" id="linearGradient-1">
            <stop stop-color="#96BCFF" offset="0%"></stop>
            <stop stop-color="#81A4F2" offset="48.4620617%"></stop>
            <stop stop-color="#6677EF" offset="100%"></stop>
        </linearGradient>
    </defs>
    <g id="页面-2" stroke="none" stroke-width="1" fill="none" fill-rule="evenodd">
        <g id="画板" transform="translate(-4454.000000, -737.000000)" fill="url(#linearGradient-1)" fill-rule="nonzero">
            <g id="编组-66" transform="translate(3310.000000, 162.000000)">
                <g id="编组-47" transform="translate(224.000000, 116.000000)">
                    <g id="编组-55" transform="translate(896.000000, 433.000000)">
                        <g id="编组-49" transform="translate(24.000000, 24.000000)">
                            <path d="M11,2 C4.92821756,2.00807956 0.00807956154,6.92821756 0,13 C0.00807956154,19.0717824 4.92821756,23.9919204 11,24 C17.0717824,23.9919204 21.9919204,19.0717824 22,13 C21.9919204,6.92821756 17.0717824,2.00807956 11,2 Z M14.0257333,19.2142667 L8.98333333,19.2142667 C8.57832452,19.2142667 8.25,18.8859421 8.25,18.4809333 C8.25,18.0759245 8.57832452,17.7476 8.98333333,17.7476 L14.0257333,17.7476 C15.6434667,17.7476 16.9590667,16.432 16.9590667,14.8142667 C16.9590667,13.1965333 15.6434667,11.8809333 14.0257333,11.8809333 L6.556,11.8809333 L8.93346667,14.2584 C9.21137962,14.5461445 9.20740507,15.0035288 8.92453362,15.2864003 C8.64166217,15.5692717 8.18427785,15.5732463 7.89653333,15.2953333 L4.26653333,11.6668 C3.98025325,11.3804334 3.98025325,10.9162332 4.26653333,10.6298667 L7.89653333,6.99986667 C8.18427785,6.72195371 8.64166217,6.72592826 8.92453362,7.00879971 C9.20740507,7.29167116 9.21137962,7.74905548 8.93346667,8.0368 L6.556,10.4142667 L14.0257333,10.4142667 C16.4516,10.4142667 18.4257333,12.3884 18.4257333,14.8142667 C18.4257333,17.2401333 16.4516,19.2142667 14.0257333,19.2142667 L14.0257333,19.2142667 Z" id="形状"></path>
                        </g>
                    </g>
                </g>
            </g>
        </g>
    </g>
</svg>