<?xml version="1.0" encoding="utf-8"?>
<!-- Generator: Adobe Illustrator 22.0.0, SVG Export Plug-In . SVG Version: 6.00 Build 0)  -->
<svg version="1.1" id="图层_1" xmlns="http://www.w3.org/2000/svg" xmlns:xlink="http://www.w3.org/1999/xlink" x="0px" y="0px"
	 viewBox="0 0 14 14" style="enable-background:new 0 0 14 14;" xml:space="preserve">
<style type="text/css">
	.st0{fill:#FFFFFF;}
</style>
<title>形状</title>
<g id="总">
	<g id="画板" transform="translate(-111.000000, -276.000000)">
		<g id="编组-72" transform="translate(-813.000000, -609.000000)">
			<g id="编组-66" transform="translate(907.000000, 708.000000)">
				<g id="编组-33" transform="translate(1.000000, 100.000000)">
					<g id="编组-28" transform="translate(0.000000, 64.000000)">
						<path id="形状" class="st0" d="M27.3,26c0,0-8.7,0-8.7,0c0,0,0-4.2,0-4.2v-1.9c0-0.3-0.2-0.5-0.5-0.5c0,0,0,0,0,0
							c-0.6,0-1.1-0.5-1.1-1.1c0,0,0-0.1,0-0.1l0-0.1c0,0,0-0.1,0-0.2c0,0,0,0,0-0.1l0.8-3.9l-0.5-0.1l0.5,0.1c0,0,0,0,0.1,0h10.2
							c0,0,0,0,0.1,0l0.5-0.1L28.1,14l0.8,3.9c0,0,0,0,0,0.1c0,0.1,0,0.1,0,0.2l0,0l0,0.1l0.5-0.1l-0.5,0c0,0.1,0,0.1,0,0.2
							c0,0,0,0,0,0.1c0,0.6-0.5,1.1-1.1,1.1c0,0,0,0,0,0c-0.3,0-0.5,0.2-0.5,0.5V26L27.3,26z M28.3,19.9h-0.5l0,0.5c0,0,0.1,0,0.1,0
							c1.2,0,2.1-0.9,2.1-2.1c0,0,0,0,0-0.1c0-0.1,0-0.1,0-0.1c0-0.1,0-0.1,0-0.2l0-0.1L29.5,18l0.5-0.1c0-0.1-0.1-0.2-0.1-0.3
							l-0.5,0.2l0.5-0.1l-0.8-3.9c-0.1-0.5-0.5-0.8-1-0.8H17.9c-0.4,0-0.9,0.3-1,0.7l-0.8,3.9l0.5,0.1l-0.5-0.2
							c0,0.1-0.1,0.2-0.1,0.3l0,0.1c0,0.1,0,0.2,0,0.3c0,1.2,0.9,2.1,2.1,2.1c0,0,0.1,0,0.1,0l0-0.5h-0.5V26c0,0.5,0.4,1,1,1h8.7
							c0.5,0,1-0.4,1-1L28.3,19.9L28.3,19.9z M28.3,19.7h-1v0.2h1V19.7L28.3,19.7z M17.7,19.9c0,0.3,0.2,0.5,0.5,0.5
							c1.1,0,2-1,2-2.1c0-0.1,0-0.2,0-0.3l-0.5,0.1v0.5l0-0.5l-0.5-0.1c0,0.1,0,0.2,0,0.3c0,1.2,0.9,2.1,2.1,2.1
							c1.2,0,2.1-0.9,2.1-2.1c0-0.1,0-0.2,0-0.3L23,18.1v0.5l0-0.5l-0.5-0.1c0,0.1,0,0.2,0,0.3c0,1.2,0.9,2.1,2.1,2.1
							c1.2,0,2.1-0.9,2.1-2.1c0-0.1,0-0.2,0-0.3l-0.5,0.1v0.5l0-0.5l-0.5-0.1c0,0.1,0,0.2,0,0.3c0,1.1,0.9,2.1,2,2.1l0-1
							c-0.6,0-1.1-0.5-1.1-1.1c0,0,0-0.1,0-0.1c0-0.3-0.2-0.5-0.5-0.5c-0.3,0-0.5,0.3-0.5,0.5c0,0,0,0.1,0,0.1
							c0,0.6-0.5,1.1-1.1,1.1c-0.6,0-1.1-0.5-1.1-1.1c0,0,0-0.1,0-0.1c0-0.3-0.2-0.5-0.5-0.5c-0.3,0-0.5,0.3-0.5,0.5
							c0,0,0,0.1,0,0.1c0,0.6-0.5,1.1-1.1,1.1c-0.6,0-1.1-0.5-1.1-1.1c0,0,0-0.1,0-0.1c0-0.3-0.2-0.5-0.5-0.5
							c-0.3,0-0.5,0.3-0.5,0.5c0,0,0,0.1,0,0.1c0,0.6-0.5,1.1-1.1,1.1l0,0.5h0.5v-0.2h-1V19.9L17.7,19.9z"/>
					</g>
				</g>
			</g>
		</g>
	</g>
</g>
</svg>
