<?xml version="1.0" encoding="UTF-8"?>
<svg width="22px" height="22px" viewBox="0 0 22 22" version="1.1" xmlns="http://www.w3.org/2000/svg" xmlns:xlink="http://www.w3.org/1999/xlink">
    <title>形状</title>
    <defs>
        <linearGradient x1="50%" y1="0%" x2="50%" y2="100%" id="linearGradient-1">
            <stop stop-color="#96BCFF" offset="0%"></stop>
            <stop stop-color="#81A4F2" offset="48.4620617%"></stop>
            <stop stop-color="#6677EF" offset="100%"></stop>
        </linearGradient>
    </defs>
    <g id="页面-2" stroke="none" stroke-width="1" fill="none" fill-rule="evenodd">
        <g id="画板" transform="translate(-3868.000000, -440.000000)" fill="url(#linearGradient-1)" fill-rule="nonzero">
            <g id="编组-66" transform="translate(3310.000000, 162.000000)">
                <g id="编组-47" transform="translate(224.000000, 116.000000)">
                    <g id="编组-55" transform="translate(310.000000, 136.000000)">
                        <g id="编组-49" transform="translate(24.000000, 24.000000)">
                            <path d="M11.6022206,2 C12.7053976,2 13.669217,2.73892124 13.9467906,3.79725773 C16.9807898,4.4738069 19.5450956,6.470746 20.9263789,9.23257381 C22.3076622,11.9944016 22.3585567,15.2264648 21.064905,18.0296798 C21.6845002,18.8905937 21.6630257,20.0519421 21.0120188,20.8897709 C20.361012,21.7275997 19.2337163,22.0446885 18.2357905,21.670676 C15.2301199,24.1219597 11.0884666,24.6876847 7.52597415,23.133573 C3.96348166,21.5794612 1.58669713,18.1701145 1.37989563,14.3174129 C0.396920585,13.8526739 -0.152411616,12.7948968 0.0371424307,11.731849 C0.226696477,10.6688011 1.1085459,9.86177113 2.19267989,9.75919545 C3.47264929,6.79324321 6.08761551,4.59845276 9.24983545,3.83599174 C9.51196515,2.75883334 10.4843783,2 11.6022206,2 Z M13.6748205,5.64409499 L13.5810377,5.78663612 C13.1147198,6.44368344 12.347509,6.82567565 11.5373521,6.80418172 C10.7271952,6.7826878 9.98169672,6.36056255 9.55150344,5.67973027 C7.08673521,6.316249 5.04333185,8.02125308 3.99018351,10.3200638 C4.64608171,10.8724585 4.9570882,11.7283139 4.80720403,12.5684138 C4.65731986,13.4085136 4.06904883,14.1067243 3.26180379,14.4026277 C3.494461,17.4785454 5.41564474,20.1780656 8.2609248,21.4270616 C11.1062049,22.6760577 14.4139889,22.2719038 16.8681247,20.375411 C16.5202605,19.5756265 16.6365066,18.6518367 17.1719117,17.9612613 C17.7073168,17.270686 18.577952,16.9215784 19.4471517,17.0489348 C20.4158632,14.7879258 20.3336225,12.2192335 19.2222266,10.0236612 C18.1108307,7.82808897 16.0824998,6.22732877 13.6748205,5.64564434 L13.6748205,5.64409499 Z M11.6110539,7.36782438 C13.8959377,7.36782438 16.0072574,8.57612164 17.1496993,10.5375624 C18.2921412,12.4990031 18.2921412,14.9155977 17.1496993,16.8770384 C16.0072574,18.8384791 13.8959377,20.0467764 11.6110539,20.0467764 C8.07892957,20.0467764 5.21557708,17.2084963 5.21557708,13.7073004 C5.21557708,10.2061045 8.07892957,7.36782438 11.6110539,7.36782438 L11.6110539,7.36782438 Z" id="形状"></path>
                        </g>
                    </g>
                </g>
            </g>
        </g>
    </g>
</svg>