<?xml version="1.0" encoding="UTF-8"?>
<svg width="22px" height="22px" viewBox="0 0 22 22" version="1.1" xmlns="http://www.w3.org/2000/svg" xmlns:xlink="http://www.w3.org/1999/xlink">
    <title>形状</title>
    <defs>
        <linearGradient x1="50%" y1="0%" x2="50%" y2="100%" id="linearGradient-1">
            <stop stop-color="#96BCFF" offset="0%"></stop>
            <stop stop-color="#81A4F2" offset="48.4620617%"></stop>
            <stop stop-color="#6677EF" offset="100%"></stop>
        </linearGradient>
    </defs>
    <g id="页面-2" stroke="none" stroke-width="1" fill="none" fill-rule="evenodd">
        <g id="画板" transform="translate(-4454.000000, -440.000000)" fill="url(#linearGradient-1)" fill-rule="nonzero">
            <g id="编组-66" transform="translate(3310.000000, 162.000000)">
                <g id="编组-47" transform="translate(224.000000, 116.000000)">
                    <g id="编组-55" transform="translate(896.000000, 136.000000)">
                        <g id="编组-49" transform="translate(24.000000, 24.000000)">
                            <path d="M21.12,2 L0.88,2 C0.39398942,2 0,2.39398942 0,2.88 L0,23.12 C0,23.6060106 0.39398942,24 0.88,24 L21.12,24 C21.6060106,24 22,23.6060106 22,23.12 L22,2.88 C22,2.39398942 21.6060106,2 21.12,2 Z M8.02912,17.70272 L8.02912,19.82 C8.02912,19.9415026 7.93062264,20.04 7.80912,20.04 L6.48912,20.04 C6.36761736,20.04 6.26912,19.9415026 6.26912,19.82 L6.26912,17.70272 C5.09000058,17.3185073 4.29124966,16.2201361 4.28912,14.98 C4.28912,13.70928 5.12336,12.62864 6.26912,12.25728 L6.26912,6.18 C6.26912,6.05856 6.36944,5.96 6.48912,5.96 L7.80912,5.96 C7.93232,5.96 8.02912,6.05856 8.02912,6.18 L8.02912,12.25728 C9.20823942,12.6414927 10.0069903,13.7398639 10.00912,14.98 C10.00912,16.25072 9.17664,17.33136 8.02912,17.70272 L8.02912,17.70272 Z M15.72032,13.74448 L15.72912,13.74272 L15.72912,19.82 C15.7291239,19.9408186 15.6316948,20.0390335 15.51088,20.040007 L14.19088,20.040007 C14.132228,20.0404692 14.075817,20.017498 14.0341775,19.9761891 C13.9925381,19.9348801 13.9691181,19.8786539 13.96912,19.82 L13.96912,13.74272 L13.98144,13.74448 C12.797946,13.3640753 11.9953963,12.2631274 11.9953963,11.02 C11.9953963,9.77687259 12.797946,8.67592469 13.98144,8.29552 L13.96912,8.29728 L13.96912,6.18 C13.96912,6.05856 14.06944,5.96 14.19088,5.96 L15.51088,5.96 C15.63056,5.96 15.72912,6.05856 15.72912,6.18 L15.72912,8.29728 L15.71856,8.29552 C16.902054,8.67592469 17.7046037,9.77687259 17.7046037,11.02 C17.7046037,12.2631274 16.902054,13.3640753 15.71856,13.74448 L15.72032,13.74448 Z M13.85824,11.02 C13.8429038,11.3836502 14.0281708,11.7264364 14.3407931,11.9128335 C14.6534155,12.0992306 15.0430645,12.0992306 15.3556869,11.9128335 C15.6683092,11.7264364 15.8535762,11.3836502 15.83824,11.02 C15.8158656,10.4894631 15.3792484,10.0708713 14.84824,10.0708713 C14.3172316,10.0708713 13.8806144,10.4894631 13.85824,11.02 Z M8.01328,14.49952 L7.9728,14.43264 C7.9728,14.42912 7.96928,14.42912 7.96928,14.42736 L7.94464,14.39392 C7.91690617,14.3558894 7.8856769,14.3205355 7.85136,14.28832 L7.84608,14.28128 L7.81264,14.25136 C7.79111338,14.2297617 7.76753554,14.2103099 7.74224,14.19328 L7.73872,14.19328 L7.70528,14.16864 L7.69472,14.15984 C7.66082517,14.1366738 7.62488993,14.1166444 7.58736,14.1 C7.58208,14.09648 7.57328,14.09472 7.568,14.08944 L7.53808,14.07536 L7.50992,14.0648 C7.49584,14.05952 7.48352,14.05248 7.46944,14.05072 L7.43424,14.04016 L7.40784,14.03136 L7.37088,14.02256 C7.36384,14.0208 7.3568,14.0208 7.35152,14.01728 L7.29344,14.00672 C7.28816,14.00672 7.28288,14.00672 7.27584,14.0032 L7.23008,13.99792 L7.21072,13.99616 L7.14736,13.99264 C7.12448,13.99264 7.10512,13.99264 7.084,13.99616 L7.0664,13.99792 C7.0504249,13.9981128 7.03450779,13.9998814 7.01888,14.0032 C7.01184,14.0032 7.00656,14.0032 7.00128,14.00672 L6.9432,14.01728 C6.93792,14.0208 6.92912,14.0208 6.9256,14.02256 L6.88688,14.03136 L6.86048,14.04016 L6.82528,14.05072 L6.7848,14.0648 L6.75664,14.07536 L6.72672,14.08944 C6.72144,14.0912 6.71264,14.09472 6.70736,14.1 C6.67216,14.1176 6.63696,14.13872 6.6,14.15984 L6.58944,14.16864 L6.556,14.19328 L6.55248,14.19328 L6.48208,14.25136 C6.47152,14.26192 6.4592,14.26896 6.44864,14.28128 L6.44336,14.28656 C6.41259943,14.3181106 6.38323787,14.3509956 6.35536,14.38512 L6.35008,14.39392 L6.32544,14.42736 C6.32544,14.43088 6.32192,14.43088 6.32192,14.43264 L6.28144,14.49952 L6.27264,14.51184 C6.11744208,14.8046533 6.11744208,15.1553467 6.27264,15.44816 L6.28144,15.46048 L6.32192,15.52736 C6.32192,15.53088 6.32544,15.53088 6.32544,15.53264 L6.35008,15.56608 C6.37781383,15.6041106 6.4090431,15.6394645 6.44336,15.67168 L6.44864,15.67872 L6.48208,15.70864 C6.50360662,15.7302383 6.52718446,15.7496901 6.55248,15.76672 L6.556,15.76672 L6.58944,15.79136 L6.6,15.80016 C6.63344,15.82128 6.6704,15.84416 6.7056,15.86 C6.71264,15.86352 6.72144,15.86528 6.72672,15.87056 L6.75664,15.88464 L6.7848,15.8952 C6.79784864,15.9010856 6.81139547,15.9057976 6.82528,15.90928 L6.86048,15.91984 L6.88512,15.92864 L6.92384,15.93744 C6.92912,15.9392 6.93792,15.9392 6.9432,15.94272 L7.00128,15.95328 C7.00735227,15.9529128 7.01341607,15.9541255 7.01888,15.9568 L7.06464,15.96208 C7.07114664,15.9614634 7.07771122,15.9620602 7.084,15.96384 L7.14736,15.96736 C7.16848,15.96736 7.18784,15.96736 7.21072,15.96384 L7.22832,15.96208 C7.24592,15.96208 7.26352,15.95856 7.27584,15.9568 C7.28112,15.9568 7.28816,15.9568 7.29344,15.95328 L7.35152,15.94272 C7.3568,15.9392 7.36384,15.9392 7.36912,15.93744 L7.40784,15.92864 L7.43248,15.91984 C7.4448,15.91808 7.45712,15.9128 7.46768,15.90928 L7.50992,15.8952 L7.53808,15.88464 L7.568,15.87056 C7.57328,15.8688 7.58208,15.86528 7.5856,15.86 C7.62256,15.8424 7.65952,15.82128 7.69472,15.80016 L7.70528,15.79136 L7.73872,15.76672 L7.74048,15.76672 C7.76512,15.74736 7.79152,15.728 7.81264,15.70864 C7.8232,15.69808 7.83552,15.69104 7.84608,15.67872 L7.85136,15.67344 C7.88412611,15.6391417 7.91525412,15.6033152 7.94464,15.56608 L7.96928,15.53264 C7.96928,15.52912 7.9728,15.52912 7.9728,15.52736 L8.01328,15.46048 L8.02208,15.44816 C8.17727792,15.1553467 8.17727792,14.8046533 8.02208,14.51184 C8.01968011,14.5073773 8.01672311,14.5032375 8.01328,14.49952 L8.01328,14.49952 Z" id="形状"></path>
                        </g>
                    </g>
                </g>
            </g>
        </g>
    </g>
</svg>