<?xml version="1.0" encoding="UTF-8"?>
<svg width="23px" height="20px" viewBox="0 0 23 20" version="1.1" xmlns="http://www.w3.org/2000/svg" xmlns:xlink="http://www.w3.org/1999/xlink">
    <title>形状结合</title>
    <defs>
        <linearGradient x1="50%" y1="0%" x2="50%" y2="100%" id="linearGradient-1">
            <stop stop-color="#96BCFF" offset="0%"></stop>
            <stop stop-color="#81A4F2" offset="48.4620617%"></stop>
            <stop stop-color="#6677EF" offset="100%"></stop>
        </linearGradient>
    </defs>
    <g id="页面-2" stroke="none" stroke-width="1" fill="none" fill-rule="evenodd">
        <g id="画板" transform="translate(-3868.000000, -738.000000)" fill="url(#linearGradient-1)" fill-rule="nonzero">
            <g id="编组-66" transform="translate(3310.000000, 162.000000)">
                <g id="编组-47" transform="translate(224.000000, 116.000000)">
                    <g id="编组-55" transform="translate(310.000000, 433.000000)">
                        <g id="编组-49" transform="translate(24.000000, 24.000000)">
                            <path d="M17.48,3 L23,13 L17.48,23 L5.52000001,23 L0,13 L5.52000001,3 L17.48,3 Z M12.6224,7.76185753 C12.2416362,7.7628014 11.8653758,7.84719383 11.5184,8.00952381 C11.165773,7.84454174 10.7829656,7.76008842 10.396,7.76185753 C8.97963418,7.75354218 7.78705845,8.85640725 7.63600001,10.3142857 C6.59232247,10.7694146 5.91370428,11.8276385 5.91370428,13 C5.91370428,14.1723615 6.59232247,15.2305854 7.63600001,15.6857143 C7.78705845,17.1435927 8.97963418,18.2464578 10.396,18.2381425 C10.7829656,18.2399116 11.165773,18.1554583 11.5184,17.9904762 C11.871027,18.1554583 12.2538344,18.2399116 12.6408,18.2381425 C14.0571658,18.2464578 15.2497416,17.1435928 15.4008,15.6857143 L15.4008,15.6857143 L15.3824,15.6857143 C16.4260775,15.2305854 17.1046957,14.1723615 17.1046957,13 C17.1046957,11.8276385 16.4260775,10.7694146 15.3824,10.3142857 C15.2313416,8.85640724 14.0387658,7.75354217 12.6224,7.76185753 Z M10.3499399,10.937855 C11.0615929,10.5124909 11.9384071,10.5124909 12.6500601,10.937855 C13.3617132,11.3632191 13.8000744,12.1493163 13.8,13 C13.8000744,13.8506837 13.3617132,14.6367809 12.6500601,15.062145 C11.9384071,15.4875091 11.0615929,15.4875091 10.3499399,15.062145 C9.63828682,14.6367809 9.19992558,13.8506837 9.20000001,13 C9.19992558,12.1493163 9.63828682,11.3632191 10.3499399,10.937855 Z" id="形状结合"></path>
                        </g>
                    </g>
                </g>
            </g>
        </g>
    </g>
</svg>