<?xml version="1.0" encoding="UTF-8"?>
<svg width="370px" height="30px" viewBox="0 0 370 30" version="1.1" xmlns="http://www.w3.org/2000/svg" xmlns:xlink="http://www.w3.org/1999/xlink">
    <title>形状结合</title>
    <defs>
        <linearGradient x1="50%" y1="0%" x2="50%" y2="100%" id="linearGradient-1">
            <stop stop-color="#FFFFFF" offset="0%"></stop>
            <stop stop-color="#C0EBFE" offset="61.7614596%"></stop>
            <stop stop-color="#8FC9F9" offset="100%"></stop>
        </linearGradient>
    </defs>
    <g id="页面-1" stroke="none" stroke-width="1" fill="none" fill-rule="evenodd">
        <g id="画板备份-17" transform="translate(-778, -25)" fill="url(#linearGradient-1)" fill-rule="nonzero">
            <g id="22" transform="translate(1, 0)">
                <path d="M805.72,29.52 L807.32,36.04 L812.12,36.04 L812.12,40 L808.28,40 L811.68,53.96 L806.52,53.96 L803.12,40 L794.2,40 L794.2,48.8 L797.72,48.44 L797,46 L801.36,46 L803.76,53.96 L799.36,53.96 L798.84,52.16 L788.64,53.32 L788.64,40 L788.64,36.04 L788.64,30.52 L788.64,28.96 L788.64,26.56 L812.12,25.24 L812.12,29.16 L805.72,29.52 Z M800.64,29.84 L794.2,30.2 L794.2,36.04 L802.16,36.04 L800.64,29.84 Z M780.36,35.92 L777,35.92 L781.44,25.08 L786.8,25.08 L784.04,31.8 L785.52,31.8 L785.52,53.96 L780.36,53.96 L780.36,35.92 Z M838.4,29.68 L838.4,31.12 L847.92,31.12 L847.92,37.64 C847.92,38.1733333 847.82,38.6666667 847.62,39.12 C847.42,39.5733333 847.146667,39.9666667 846.8,40.3 C846.453333,40.6333333 846.046667,40.9 845.58,41.1 C845.113333,41.3 844.626667,41.4 844.12,41.4 L838.4,41.4 L838.4,48.48 L832.84,48.48 L832.84,41.4 L823.24,41.4 L823.24,31.12 L832.84,31.12 L832.84,29.68 L822.76,29.68 L822.76,26.4 L832.84,26.4 L832.84,25.04 L838.4,25.04 L838.4,26.4 L840,26.4 L848.44,26.4 L848.44,29.68 L844.76,29.68 L838.4,29.68 Z M832.84,37.88 L832.84,34.6 L828.76,34.6 L828.76,37.88 L832.84,37.88 Z M838.4,34.6 L838.4,37.88 L841.12,37.88 C841.466667,37.88 841.76,37.76 842,37.52 C842.24,37.28 842.36,36.9866667 842.36,36.64 L842.36,34.6 L838.4,34.6 Z M845.76,42.72 L848.16,48.48 L842.4,48.48 L840,42.72 L845.76,42.72 Z M823.12,48.48 L825.52,42.72 L831.28,42.72 L828.88,48.48 L823.12,48.48 Z M814,43.68 L816.92,35.08 L813.96,35.08 L813.96,31.48 L822,31.48 L822.68,31.48 L819.76,40.16 L822,40.16 L820.36,46.84 L823.08,50.32 L848.72,50.32 L848.72,53.96 L820.28,53.96 L819,52.4 L818.64,53.96 L813.96,53.96 L816.8,43.8 L813.96,43.8 L814,43.68 Z M814,25.48 L819.2,25.48 L821.92,30.28 L816.72,30.28 L814,25.48 Z M850.64,53.84 L857.2,39.52 L850.64,39.52 L850.64,35.4 L859.08,35.4 L861.92,29.24 L852,29.24 L852,25.12 L884.28,25.12 L884.28,29.24 L867.76,29.24 L864.92,35.4 L885.64,35.4 L885.64,39.52 L877.08,39.52 L877.08,48.92 C877.08,49.2666667 877.2,49.56 877.44,49.8 C877.68,50.04 877.973333,50.16 878.32,50.16 L885.64,50.16 L883.88,53.88 L875.52,53.88 C874.4,53.88 873.453333,53.4933333 872.68,52.72 C871.906667,51.9466667 871.52,51 871.52,49.88 L871.52,39.52 L863,39.52 L856.48,53.84 L850.64,53.84 Z M894.44,53.92 L887.44,53.92 L901.92,35.6 L901.92,25.08 L908.4,25.08 L908.4,36.04 L906.4,38.56 L910.68,38.56 L922.48,53.92 L915.24,53.92 L905.12,40.24 L894.44,53.92 Z M954.92,25.2 C955.506667,25.2 956.066667,25.3133333 956.6,25.54 C957.133333,25.7666667 957.6,26.08 958,26.48 C958.4,26.88 958.72,27.3466667 958.96,27.88 C959.2,28.4133333 959.32,28.9733333 959.32,29.56 L959.32,49.48 C959.32,50.0933333 959.2,50.6666667 958.96,51.2 C958.72,51.7333333 958.4,52.2 958,52.6 C957.6,53 957.133333,53.3133333 956.6,53.54 C956.066667,53.7666667 955.506667,53.88 954.92,53.88 L950.68,53.88 L951.8,50.84 L953.44,50.84 C953.786667,50.84 954.08,50.72 954.32,50.48 C954.56,50.24 954.68,49.9466667 954.68,49.6 L954.68,29.76 C954.68,29.4133333 954.56,29.12 954.32,28.88 C954.08,28.64 953.786667,28.52 953.44,28.52 L940.32,28.52 L940.32,53.88 L935.68,53.88 L935.68,25.2 L954.92,25.2 Z M941.6,49.84 L941.6,39.52 L953.52,39.52 L953.52,47.16 C953.52,47.9066667 953.26,48.54 952.74,49.06 C952.22,49.58 951.586667,49.84 950.84,49.84 L941.6,49.84 Z M945.88,47.4 L948.48,47.4 C948.693333,47.4 948.873333,47.3266667 949.02,47.18 C949.166667,47.0333333 949.24,46.8533333 949.24,46.64 L949.24,41.96 L945.88,41.96 L945.88,47.4 Z M945.28,35.68 L945.28,34.08 L941.6,34.08 L941.6,31.52 L945.28,31.52 L945.28,29.68 L949.72,29.68 L949.72,31.52 L953.4,31.52 L953.4,34.08 L949.72,34.08 L949.72,35.68 L953.64,35.68 L953.64,38.24 L941.36,38.24 L941.36,35.68 L945.28,35.68 Z M927.12,31.52 L924.2,25 L929.88,25 L932.8,31.52 L927.12,31.52 Z M929.72,54.04 C928.84,54.04 928.086667,53.7266667 927.46,53.1 C926.833333,52.4733333 926.52,51.72 926.52,50.84 L926.52,37.76 L924.16,37.76 L924.16,33.8 L926.52,33.8 L932.12,33.8 L932.2,33.8 L932.2,49.32 C932.2,49.6666667 932.32,49.96 932.56,50.2 C932.8,50.44 933.093333,50.56 933.44,50.56 L935.2,50.56 L933.64,54.04 L929.72,54.04 Z M970.96,44.48 L970.96,41.24 L997.16,41.24 L997.16,44.48 C996.173333,46.1866667 994.773333,47.6266667 992.96,48.8 C992.48,49.12 991.973333,49.4266667 991.44,49.72 C993.226667,49.9333333 995.133333,50.08 997.16,50.16 L997.16,53.88 C994.466667,53.8533333 991.8,53.6666667 989.16,53.32 C987.4,53.1066667 985.72,52.8 984.12,52.4 C982.546667,52.7733333 980.906667,53.08 979.2,53.32 C976.506667,53.6666667 973.76,53.8533333 970.96,53.88 L970.96,50.16 C973.04,50.08 975,49.9333333 976.84,49.72 C976.466667,49.5066667 976.093333,49.28 975.72,49.04 C973.906667,47.92 972.466667,46.5733333 971.4,45 L976.88,45 C978.693333,46.36 981.106667,47.4666667 984.12,48.32 C987.533333,47.36 990.173333,46.08 992.04,44.48 L970.96,44.48 Z M997.92,30 L969.32,30 L969.32,49.52 L967.4,53.88 L962.36,53.88 L964.32,49.52 L964.32,26.56 L978.48,26.56 L977.88,25.12 L984.36,25.12 L985,26.56 L997.92,26.56 L997.92,30 Z M995.88,31.88 L997.44,31.88 L997.44,35.12 L995.88,35.12 L995.88,36.48 C995.88,37.52 995.52,38.3866667 994.8,39.08 C994.106667,39.7733333 993.253333,40.12 992.24,40.12 L971.92,40.12 L971.92,35.12 L969.92,35.12 L969.92,31.88 L971.92,31.88 L971.92,30.76 L976.48,30.76 L976.48,31.88 L991.32,31.88 L991.32,30.76 L995.88,30.76 L995.88,31.88 Z M991,36.56 C991.213333,36.3733333 991.32,36.1333333 991.32,35.84 L991.32,35.12 L976.48,35.12 L976.48,36.88 L990.28,36.88 C990.493333,36.88 990.733333,36.7733333 991,36.56 Z M1033.52,26.36 L1033.52,30.32 L1013,30.32 L1013,26.36 L1033.52,26.36 Z M1001.12,53.96 L1004.44,43.64 L1001.12,43.64 L1001.2,43.48 L1004.56,34.8 L1001.12,34.8 L1001.12,31.12 L1009.28,31.12 L1009.96,31.12 L1006.56,39.96 L1009.28,39.96 L1007.48,46.56 L1010.4,50.32 L1035.96,50.32 L1035.96,53.96 L1007.52,53.96 L1005.96,52.04 L1005.4,53.96 L1001.12,53.96 Z M1001.16,25.04 L1006.44,25.04 L1009.2,29.92 L1003.92,29.92 L1001.16,25.04 Z M1011.72,48 L1015.44,37.6 L1011.72,37.6 L1011.72,33.64 L1034.68,33.64 L1034.68,37.6 L1020.72,37.6 L1018.4,44.04 L1028.04,44.04 L1027.08,40.48 L1032.36,40.48 L1034.68,48.88 L1029.36,48.88 L1029.12,48 L1017,48 L1014.2,48 L1011.72,48 Z M1060.2,29.72 L1060.72,28.76 L1050,28.76 L1050.52,29.72 L1044.76,29.72 L1044.24,28.76 L1037.8,28.76 L1037.8,25.96 L1042.72,25.96 L1042.2,25 L1047.96,25 L1048.48,25.96 L1062.24,25.96 L1062.76,25 L1068.52,25 L1067.96,25.96 L1072.92,25.96 L1072.92,28.76 L1066.44,28.76 L1065.92,29.72 L1060.2,29.72 Z M1071.68,49.6 C1071.68,50.2133333 1071.56667,50.7866667 1071.34,51.32 C1071.11333,51.8533333 1070.8,52.32 1070.4,52.72 C1070,53.12 1069.53333,53.4333333 1069,53.66 C1068.46667,53.8866667 1067.89333,54 1067.28,54 L1064.52,54 L1039.04,54 L1039.04,51.52 L1039.04,47.72 L1039.04,44.92 L1046.16,44.92 L1071.68,44.92 L1071.68,47.4 L1071.68,47.72 L1071.68,49.6 Z M1064.52,48 L1046.16,48 L1046.16,50.92 L1062.64,50.92 C1063.17333,50.92 1063.62,50.74 1063.98,50.38 C1064.34,50.02 1064.52,49.5733333 1064.52,49.04 L1064.52,48 Z M1040.36,35.8 L1037.64,35.8 L1037.64,30.6 L1069.12,30.6 C1070.34667,30.6 1071.31333,30.88 1072.02,31.44 C1072.72667,32 1073.08,32.88 1073.08,34.08 L1073.08,35.8 L1070.32,35.8 L1070.32,37.88 L1070.32,38.2 L1070.32,39.4 C1070.32,40.52 1069.94,41.4666667 1069.18,42.24 C1068.42,43.0133333 1067.48,43.4 1066.36,43.4 L1063.2,43.4 L1040.36,43.4 L1040.36,40.88 L1040.36,38.2 L1040.36,35.8 Z M1063.2,38.44 L1047.48,38.44 L1047.48,40.32 L1061.76,40.32 C1062.16,40.32 1062.5,40.1733333 1062.78,39.88 C1063.06,39.5866667 1063.2,39.24 1063.2,38.84 L1063.2,38.44 Z M1042.72,33.64 L1042.72,35.36 L1047.48,35.36 L1067.96,35.36 L1067.96,34.92 C1067.96,34.5466667 1067.84,34.24 1067.6,34 C1067.36,33.76 1067.06667,33.64 1066.72,33.64 L1042.72,33.64 Z M1088.28,35.76 L1074.52,35.76 L1074.52,31.64 L1090.12,31.64 L1090.12,25.16 L1095.48,25.16 L1095.48,31.64 L1109.52,31.64 L1109.52,35.76 L1094.92,35.76 L1092.96,38.36 L1097.8,38.36 L1109.76,53.8 L1103.28,53.8 L1092.12,39.44 L1081.24,53.84 L1074.56,53.84 L1088.28,35.76 Z M1122.56,44.96 L1122.92,41.92 L1120.12,41.92 L1120.12,37.96 L1123.92,37.96 L1123,35.92 L1128.8,35.92 L1129.72,37.96 L1136.28,37.96 L1137.2,35.92 L1143,35.92 L1142.08,37.96 L1145.88,37.96 L1145.88,41.92 L1143.36,41.92 L1143.36,44.96 L1146.28,44.96 L1146.28,48.88 L1143.36,48.88 L1143.36,53.92 L1137.8,53.92 L1137.8,48.88 L1127.64,48.88 L1127,53.92 L1121.48,53.92 L1122.08,48.88 L1119.72,48.88 L1119.72,44.96 L1122.56,44.96 Z M1128.12,44.96 L1137.8,44.96 L1137.8,41.92 L1128.48,41.92 L1128.12,44.96 Z M1113.36,25.08 L1146.36,25.08 L1146.36,30.68 C1146.36,31.2933333 1146.24667,31.8666667 1146.02,32.4 C1145.79333,32.9333333 1145.48,33.4 1145.08,33.8 C1144.68,34.2 1144.21333,34.5133333 1143.68,34.74 C1143.14667,34.9666667 1142.57333,35.08 1141.96,35.08 L1118.88,35.08 L1118.88,49.88 L1117.08,53.92 L1111.52,53.92 L1113.36,49.88 L1113.36,25.08 Z M1118.88,31.84 L1139.56,31.84 C1139.90667,31.84 1140.20667,31.72 1140.46,31.48 C1140.71333,31.24 1140.84,30.9466667 1140.84,30.6 L1140.84,28.28 L1118.88,28.28 L1118.88,31.84 Z" id="形状结合"></path>
            </g>
        </g>
    </g>
</svg>